<?xml version="1.0" encoding="utf-8"?>
<!-- Generator: Adobe Illustrator 24.1.0, SVG Export Plug-In . SVG Version: 6.00 Build 0)  -->
<svg version="1.1" id="Layer_1" xmlns="http://www.w3.org/2000/svg" xmlns:xlink="http://www.w3.org/1999/xlink" x="0px" y="0px"
	 viewBox="0 0 347 346" style="enable-background:new 0 0 347 346;" xml:space="preserve">
<style type="text/css">
	.st0{fill:#965541;}
</style>
<g>
	<path class="st0" d="M335.3,141.8l-5,1l-0.5-2.3l5-1l6.2-7.8l0.5,2.8l-4.8,6l6.7,3.4l0.5,2.8L335.3,141.8z"/>
	<path class="st0" d="M332.2,160.6c-0.3-4.5,2.7-7.7,6.1-7.9l0.4,0c3.4-0.3,6.9,2.4,7.2,6.9c0.3,4.5-2.6,7.7-6.1,7.9l-0.4,0
		C336,167.8,332.5,165.2,332.2,160.6z M339.6,165.2c2.5-0.2,4.5-2.2,4.3-5.4c-0.2-3.2-2.6-4.8-5-4.7l-0.3,0
		c-2.5,0.2-4.6,2.1-4.3,5.4c0.2,3.2,2.6,4.9,5.1,4.7L339.6,165.2z"/>
	<path class="st0" d="M332.4,180.9c0.2-4.6,2.8-6.6,6.1-6.4l7.4,0.4l-0.1,2.4l-7.5-0.4c-2.4-0.1-3.8,1.4-4,4.3
		c-0.1,3,1.2,4.3,3.5,4.5l7.5,0.4l-0.1,2.4l-7.4-0.4C334.7,187.8,332.2,185.6,332.4,180.9z"/>
	<path class="st0" d="M339.8,194.8l0.6,0.1c-0.1,1,0.5,1.7,1.7,1.9l0.1-1l2.1,0.3l-0.3,2.2l-1.9-0.3
		C340.9,197.9,339.5,197,339.8,194.8z"/>
	<path class="st0" d="M328,213.7c0.1-0.6,1.1-0.7,2.2-0.5l1.3,0.2c1.2,0.2,1.9-0.2,2.4-2.5l1-4.4l-5-1.2l0.5-2.3l12.4,2.9l-1.6,6.8
		c-0.9,3.7-2.7,5.1-4.7,4.6c-1.4-0.3-2.5-1.3-2.4-3.8c-0.7,2.4-2,2.7-3.4,2.3l-1-0.2c-0.9-0.2-1.5-0.2-2.3,0.3l-0.1,0L328,213.7z
		 M336.9,214.8c0.9,0.2,1.9-0.3,2.4-2.3l1.1-4.8l-3.7-0.9l-1.1,5c-0.4,1.7,0.2,2.7,1.2,2.9L336.9,214.8z"/>
	<path class="st0" d="M325.7,221.7l12,4.3l-3.9,10.9l-1.9-0.7l3.1-8.7l-3.1-1.1l-2.4,6.7l-1.8-0.6l2.4-6.7l-3.4-1.2l-3.1,8.7
		l-1.9-0.7L325.7,221.7z"/>
	<path class="st0" d="M314.8,247.6l11.2,6l-1.1,2.1l-11.2-6L314.8,247.6z"/>
	<path class="st0" d="M303.8,265.5l11.7-2.2l1.2-0.2l-7.9-5.2l1.3-2l10.6,7.1l-1.3,1.9l-11.5,2l-1.2,0.2l7.9,5.2l-1.3,2l-10.6-7.1
		L303.8,265.5z"/>
	<path class="st0" d="M293.5,278.4l1.2-1.4l14.2,3l-1.7,2l-11.2-2.5l4.1,10.7l-1.7,2L293.5,278.4z"/>
	<path class="st0" d="M284.7,287.7l8.8,9.2l-1.7,1.7l-8.8-9.2L284.7,287.7z"/>
	<path class="st0" d="M278.9,307.2l-6.7-8.4l1.9-1.5l6.7,8.4l4.4-3.5l1.2,1.6l-10.6,8.5l-1.2-1.6L278.9,307.2z"/>
	<path class="st0" d="M262.6,305.9l6.8,10.8l-9.8,6.2l-1.1-1.7l7.8-4.9l-1.7-2.8l-6,3.8l-1-1.6l6-3.8l-1.9-3l-7.8,4.9l-1.1-1.7
		L262.6,305.9z"/>
	<path class="st0" d="M241.2,317.9l5.9-2.8l5.4,11.5l-5.9,2.8c-4.1,1.9-7.9,0.7-9.3-2.4l-0.2-0.4
		C235.7,323.6,237.2,319.8,241.2,317.9z M239.5,325.9c1.1,2.2,3.6,3,6.4,1.7l3.7-1.7l-3.8-8l-3.7,1.7c-2.8,1.3-3.8,3.8-2.8,6
		L239.5,325.9z"/>
	<path class="st0" d="M203.5,335.4l-1-5l2.4-0.5l1,5l7.8,6.3l-2.8,0.5l-6-4.9l-3.4,6.7l-2.8,0.5L203.5,335.4z"/>
	<path class="st0" d="M184.7,332.2c4.5-0.3,7.7,2.7,7.9,6.1l0,0.4c0.2,3.4-2.4,6.8-6.9,7.2c-4.5,0.3-7.7-2.6-7.9-6.1l0-0.4
		C177.5,336,180.2,332.5,184.7,332.2z M180.1,339.6c0.2,2.5,2.1,4.5,5.4,4.3c3.2-0.2,4.9-2.6,4.7-5l0-0.3c-0.2-2.5-2.1-4.6-5.4-4.3
		c-3.2,0.2-4.9,2.6-4.7,5.1L180.1,339.6z"/>
	<path class="st0" d="M164.5,332.4c4.6,0.2,6.6,2.8,6.4,6.1l-0.4,7.4l-2.4-0.1l0.4-7.5c0.1-2.4-1.4-3.8-4.3-4
		c-3-0.2-4.3,1.2-4.5,3.5l-0.4,7.5l-2.4-0.1l0.4-7.4C157.5,334.7,159.7,332.2,164.5,332.4z"/>
	<path class="st0" d="M150.5,339.7l-0.1,0.6c-1-0.1-1.8,0.5-1.9,1.7l1,0.1l-0.3,2.1l-2.2-0.3l0.3-1.9
		C147.4,340.8,148.3,339.4,150.5,339.7z"/>
	<path class="st0" d="M131.6,327.8c0.6,0.1,0.7,1.1,0.5,2.2l-0.2,1.3c-0.2,1.2,0.2,1.9,2.5,2.4l4.4,1l1.2-5l2.3,0.5l-2.9,12.4
		l-6.8-1.6c-3.7-0.9-5.1-2.8-4.6-4.7c0.3-1.4,1.3-2.5,3.8-2.4c-2.4-0.8-2.6-2-2.3-3.4l0.2-1c0.2-0.9,0.2-1.5-0.3-2.3l0-0.1
		L131.6,327.8z M130.5,336.7c-0.2,0.9,0.3,1.9,2.3,2.4l4.8,1.1l0.9-3.7l-5-1.2c-1.7-0.4-2.7,0.2-2.9,1.2L130.5,336.7z"/>
	<path class="st0" d="M123.6,325.5l-4.3,12l-10.9-3.9l0.7-1.9l8.6,3.1l1.1-3.1l-6.6-2.4l0.7-1.8l6.6,2.4l1.2-3.4l-8.6-3.1l0.7-1.9
		L123.6,325.5z"/>
	<path class="st0" d="M97.8,314.5l-6.1,11.2l-2.1-1.1l6.1-11.2L97.8,314.5z"/>
	<path class="st0" d="M80,303.4l2.1,11.7l0.2,1.2l5.3-7.8l2,1.3l-7.1,10.6l-1.9-1.3l-1.9-11.6l-0.2-1.2l-5.3,7.8l-2-1.3l7.1-10.6
		L80,303.4z"/>
	<path class="st0" d="M67.1,293.1l1.4,1.2l-3.1,14.2l-2-1.7l2.5-11.2l-10.8,4.1l-2-1.7L67.1,293.1z"/>
	<path class="st0" d="M57.8,284.3l-9.2,8.8l-1.6-1.7l9.2-8.8L57.8,284.3z"/>
	<path class="st0" d="M38.4,278.3l8.4-6.7l1.5,1.9l-8.4,6.7l3.5,4.4l-1.6,1.2l-8.4-10.6l1.6-1.2L38.4,278.3z"/>
	<path class="st0" d="M39.8,262l-10.8,6.7l-6.1-9.8l1.7-1l4.9,7.8l2.8-1.7l-3.7-6l1.6-1l3.7,6l3-1.9l-4.9-7.8l1.7-1L39.8,262z"/>
	<path class="st0" d="M27.8,240.6l2.8,5.9L19,251.9l-2.8-5.9c-1.9-4.1-0.6-7.9,2.5-9.3l0.4-0.2C22.2,235.1,25.9,236.5,27.8,240.6z
		 M19.8,238.9c-2.2,1-3,3.5-1.7,6.4l1.7,3.7l8-3.7l-1.7-3.7c-1.3-2.8-3.8-3.8-6-2.8L19.8,238.9z"/>
	<path class="st0" d="M10.4,202.8l5-0.9l0.4,2.4l-5,1l-6.3,7.7L4,210.2l4.9-5.9l-6.7-3.4L1.7,198L10.4,202.8z"/>
	<path class="st0" d="M13.7,184c0.3,4.5-2.7,7.7-6.1,7.9l-0.4,0c-3.4,0.2-6.8-2.5-7.1-7c-0.3-4.5,2.7-7.7,6.1-7.9l0.4,0
		C10,176.8,13.4,179.5,13.7,184z M6.4,179.5c-2.5,0.2-4.5,2.1-4.3,5.4c0.2,3.2,2.5,4.9,5,4.7l0.3,0c2.5-0.2,4.6-2.1,4.4-5.3
		c-0.2-3.2-2.6-4.9-5-4.7L6.4,179.5z"/>
	<path class="st0" d="M13.6,163.8c-0.3,4.6-2.9,6.5-6.2,6.4L0,169.8l0.1-2.4l7.5,0.4c2.4,0.1,3.8-1.3,4-4.3c0.2-3-1.1-4.3-3.5-4.5
		l-7.5-0.4l0.1-2.4l7.4,0.4C11.4,156.8,13.9,159,13.6,163.8z"/>
	<path class="st0" d="M6.4,149.8l-0.6-0.1c0.1-1-0.5-1.8-1.7-1.9l-0.1,1l-2.1-0.3l0.3-2.2l1.9,0.3C5.3,146.7,6.7,147.6,6.4,149.8z"
		/>
	<path class="st0" d="M18.3,131c-0.1,0.6-1.1,0.7-2.2,0.5l-1.3-0.2c-1.2-0.2-1.9,0.2-2.4,2.5l-1,4.4l5,1.2l-0.6,2.3l-12.4-3L5,132
		c0.9-3.7,2.8-5,4.7-4.6c1.4,0.3,2.5,1.3,2.4,3.8c0.8-2.4,2-2.6,3.4-2.3l1,0.2c0.9,0.2,1.5,0.2,2.3-0.3l0.1,0L18.3,131z M9.4,129.8
		c-0.9-0.2-1.9,0.3-2.4,2.3l-1.1,4.8l3.7,0.9l1.2-5c0.4-1.7-0.2-2.7-1.2-2.9L9.4,129.8z"/>
	<path class="st0" d="M20.7,123l-12-4.4l4-10.9l1.9,0.7l-3.2,8.6l3.1,1.1l2.4-6.6l1.8,0.7l-2.4,6.6l3.3,1.2l3.2-8.6l1.9,0.7
		L20.7,123z"/>
	<path class="st0" d="M31.9,97.3l-11.2-6.1l1.1-2.1L33,95.2L31.9,97.3z"/>
	<path class="st0" d="M43,79.4l-11.7,2.1L30,81.7l7.8,5.3l-1.3,2L26,81.8l1.3-1.9L38.8,78l1.2-0.2l-7.8-5.3l1.3-2l10.6,7.2L43,79.4z
		"/>
	<path class="st0" d="M53.3,66.6L52.1,68l-14.2-3.2l1.7-2l11.2,2.6l-4-10.8l1.7-2L53.3,66.6z"/>
	<path class="st0" d="M62.2,57.4l-8.8-9.3l1.7-1.6l8.8,9.3L62.2,57.4z"/>
	<path class="st0" d="M68.2,38l6.7,8.5L73,47.9l-6.7-8.5L62,42.9l-1.2-1.6L71.4,33l1.2,1.6L68.2,38z"/>
	<path class="st0" d="M84.5,39.4l-6.7-10.9l9.9-6.1l1,1.7L80.9,29l1.7,2.8l6-3.7l1,1.6l-6,3.7l1.9,3l7.8-4.8l1,1.7L84.5,39.4z"/>
	<path class="st0" d="M106,27.5l-5.9,2.7l-5.3-11.6l5.9-2.7c4.1-1.9,7.9-0.6,9.3,2.5l0.2,0.4C111.5,21.9,110.1,25.6,106,27.5z
		 M107.8,19.5c-1-2.2-3.5-3-6.4-1.7l-3.7,1.7l3.7,8l3.7-1.7c2.8-1.3,3.8-3.8,2.8-6L107.8,19.5z"/>
	<path class="st0" d="M143.8,10.3l0.9,5l-2.4,0.4l-0.9-5l-7.7-6.3l2.8-0.5l5.9,4.9l3.5-6.7l2.8-0.5L143.8,10.3z"/>
	<path class="st0" d="M162.6,13.7c-4.5,0.3-7.6-2.8-7.9-6.2l0-0.4c-0.2-3.4,2.5-6.8,7-7.1c4.5-0.3,7.7,2.7,7.9,6.2l0,0.4
		C169.9,10,167.2,13.4,162.6,13.7z M167.2,6.4c-0.2-2.5-2.1-4.5-5.3-4.3c-3.3,0.2-4.9,2.5-4.7,5l0,0.3c0.2,2.5,2.1,4.6,5.3,4.4
		c3.3-0.2,4.9-2.6,4.7-5L167.2,6.4z"/>
	<path class="st0" d="M182.8,13.7c-4.6-0.3-6.5-2.9-6.3-6.2L177,0l2.4,0.1l-0.5,7.5c-0.1,2.4,1.3,3.8,4.3,4c3,0.2,4.3-1.1,4.5-3.5
		l0.5-7.5l2.4,0.1L190,8.3C189.8,11.5,187.6,14,182.8,13.7z"/>
	<path class="st0" d="M196.9,6.5l0.1-0.6c1,0.1,1.8-0.5,1.9-1.7l-1-0.1l0.3-2.1l2.2,0.3l-0.3,1.9C200,5.4,199.1,6.9,196.9,6.5z"/>
	<path class="st0" d="M215.6,18.5c-0.6-0.2-0.7-1.1-0.5-2.2l0.2-1.3c0.2-1.2-0.2-1.9-2.5-2.5l-4.4-1.1l-1.2,5l-2.3-0.6l3-12.4
		l6.8,1.6c3.7,0.9,5,2.8,4.6,4.7c-0.3,1.4-1.3,2.5-3.9,2.3c2.4,0.8,2.6,2,2.3,3.5l-0.2,1c-0.2,0.9-0.2,1.5,0.3,2.3l0,0.1L215.6,18.5
		z M216.9,9.6c0.2-0.9-0.3-1.9-2.3-2.4l-4.8-1.2l-0.9,3.7l5,1.2c1.7,0.4,2.7-0.2,2.9-1.2L216.9,9.6z"/>
	<path class="st0" d="M223.6,20.9l4.4-12l10.9,4l-0.7,1.9l-8.6-3.2l-1.1,3.1l6.6,2.5l-0.7,1.8l-6.6-2.5l-1.2,3.3l8.6,3.2l-0.7,1.9
		L223.6,20.9z"/>
	<path class="st0" d="M249.3,32.2l6.2-11.2l2.1,1.2l-6.2,11.2L249.3,32.2z"/>
	<path class="st0" d="M267.1,43.4l-2-11.7l-0.2-1.2l-5.3,7.8l-2-1.4l7.2-10.5l1.9,1.3l1.8,11.6l0.2,1.2l5.3-7.8l2,1.4l-7.2,10.5
		L267.1,43.4z"/>
	<path class="st0" d="M279.9,53.8l-1.4-1.3l3.2-14.2l2,1.7L281,51.3l10.8-4l2,1.7L279.9,53.8z"/>
	<path class="st0" d="M289.1,62.7l9.3-8.7l1.6,1.7l-9.3,8.7L289.1,62.7z"/>
	<path class="st0" d="M308.5,68.8l-8.5,6.6l-1.5-1.9l8.5-6.6l-3.4-4.4l1.6-1.2l8.3,10.7l-1.6,1.2L308.5,68.8z"/>
	<path class="st0" d="M307,85.1l10.9-6.6l6,9.9l-1.7,1l-4.8-7.8l-2.8,1.7l3.7,6l-1.7,1l-3.7-6l-3,1.9l4.8,7.8l-1.7,1L307,85.1z"/>
	<path class="st0" d="M318.7,106.6l-2.7-5.9l11.6-5.3l2.7,5.9c1.9,4.1,0.6,7.9-2.6,9.3l-0.4,0.2
		C324.3,112.2,320.6,110.7,318.7,106.6z M326.8,108.4c2.2-1,3-3.5,1.8-6.4l-1.7-3.7l-8,3.7l1.7,3.7c1.3,2.8,3.7,3.9,6,2.8
		L326.8,108.4z"/>
</g>
</svg>
