<svg width="401" height="399" viewBox="0 0 401 399" fill="none" xmlns="http://www.w3.org/2000/svg">
<g clip-path="url(#clip0)">
<path d="M180.479 28.581L181.04 33.6393L178.665 33.9013L178.1 28.8004L170.869 21.932L173.686 21.6231L179.226 26.9611L183.16 20.5724L185.978 20.2636L180.479 28.581Z" fill="#965541"/>
<path d="M198.967 33.3084C194.448 33.2661 191.55 29.9855 191.58 26.5962L191.582 26.1724C191.616 22.727 194.574 19.5543 199.093 19.5967C203.633 19.6408 206.528 22.8647 206.493 26.3101L206.492 26.7339C206.469 30.1237 203.506 33.3526 198.967 33.3084ZM204.089 26.3294C204.111 23.8581 202.33 21.6416 199.075 21.609C195.821 21.5764 194.022 23.7607 194 26.232L193.995 26.5354C193.973 29.0067 195.73 31.2635 198.985 31.289C202.239 31.3216 204.063 29.0971 204.085 26.6258L204.089 26.3294Z" fill="#965541"/>
<path d="M219.121 34.7591C214.588 34.1431 212.818 31.3905 213.263 28.1147L214.258 20.7313L216.612 21.0468L215.607 28.4647C215.293 30.7978 216.64 32.3905 219.559 32.7899C222.555 33.196 223.975 31.9755 224.295 29.643L225.301 22.2251L227.668 22.5488L226.666 29.9316C226.248 33.0614 223.878 35.4014 219.121 34.7591Z" fill="#965541"/>
<path d="M233.636 28.6586L233.772 28.0626C234.743 28.2803 235.552 27.7422 235.833 26.5298L234.862 26.3121L235.34 24.205L237.51 24.6955L237.088 26.56C236.8 27.7718 235.819 29.1572 233.636 28.6586Z" fill="#965541"/>
<path d="M251.474 42.0145C250.855 41.8129 250.858 40.8733 251.138 39.7527L251.466 38.4878C251.784 37.2643 251.453 36.5928 249.177 35.8601L244.88 34.473L243.299 39.3753L241.024 38.6425L244.929 26.5065L251.543 28.637C255.187 29.8124 256.359 31.7999 255.752 33.6768C255.327 35.004 254.248 36.0489 251.733 35.7195C254.039 36.6669 254.209 37.9039 253.768 39.3287L253.463 40.3341C253.213 41.1818 253.165 41.8277 253.556 42.6175L253.537 42.6724L251.474 42.0145ZM253.353 33.2302C253.633 32.3569 253.197 31.2665 251.251 30.6398L246.583 29.136L245.407 32.78L250.275 34.3504C251.952 34.8904 252.996 34.3442 253.305 33.3745L253.353 33.2302Z" fill="#965541"/>
<path d="M259.273 44.9958L264.573 33.3967L275.112 38.2106L274.277 40.0256L265.915 36.2043L264.556 39.1825L270.981 42.1164L270.18 43.8776L263.755 40.9437L262.275 44.187L270.637 48.0083L269.81 49.8168L259.273 44.9958Z" fill="#965541"/>
<path d="M284.071 58.0953L291.045 47.4104L293.052 48.7206L286.078 59.4056L284.071 58.0953Z" fill="#965541"/>
<path d="M301.012 70.5403L299.847 58.696L299.781 57.4891L293.904 64.8695L292.032 63.3801L299.977 53.4075L301.776 54.8412L302.757 66.5142L302.828 67.7428L308.706 60.3624L310.577 61.8518L302.633 71.8244L301.012 70.5403Z" fill="#965541"/>
<path d="M313.002 81.8811L311.678 80.5235L315.935 66.6017L317.752 68.4681L314.293 79.4482L325.347 76.2864L327.178 78.168L313.002 81.8811Z" fill="#965541"/>
<path d="M321.493 91.4371L331.418 83.4225L332.925 85.2834L323.001 93.298L321.493 91.4371Z" fill="#965541"/>
<path d="M340.384 98.962L331.439 104.948L330.105 102.961L339.05 96.9747L335.951 92.3413L337.608 91.233L345.14 102.487L343.483 103.595L340.384 98.962Z" fill="#965541"/>
<path d="M337.691 115.075L349.031 109.252L354.32 119.557L352.546 120.465L348.346 112.288L345.433 113.783L348.659 120.067L346.936 120.95L343.711 114.667L340.539 116.295L344.74 124.471L342.966 125.379L337.691 115.075Z" fill="#965541"/>
<path d="M347.856 137.367L345.592 131.243L357.547 126.816L359.811 132.94C361.383 137.18 359.812 140.819 356.579 142.017L356.184 142.167C353.01 143.336 349.428 141.6 347.856 137.367ZM355.718 139.781C358.032 138.92 359.011 136.496 357.927 133.569L356.511 129.745L348.256 132.801L349.672 136.625C350.756 139.552 353.113 140.737 355.434 139.884L355.718 139.781Z" fill="#965541"/>
<path d="M362.075 176.457L357.011 176.997L356.757 174.615L361.863 174.072L368.757 166.864L369.059 169.681L363.695 175.205L370.066 179.166L370.368 181.983L362.075 176.457Z" fill="#965541"/>
<path d="M357.27 194.946C357.333 190.429 360.627 187.54 364.015 187.584L364.438 187.592C367.882 187.641 371.039 190.612 370.983 195.129C370.925 199.668 367.688 202.555 364.237 202.506L363.813 202.498C360.425 202.454 357.211 199.485 357.27 194.946ZM364.232 200.096C366.702 200.132 368.932 198.359 368.971 195.105C369.018 191.851 366.835 190.038 364.364 190.01L364.061 190.005C361.591 189.969 359.327 191.724 359.281 194.978C359.234 198.231 361.451 200.062 363.921 200.097L364.232 200.096Z" fill="#965541"/>
<path d="M355.734 215.094C356.364 210.563 359.123 208.8 362.405 209.259L369.785 210.289L369.455 212.642L362.04 211.609C359.708 211.281 358.109 212.628 357.702 215.546C357.282 218.542 358.495 219.967 360.827 220.295L368.242 221.328L367.911 223.702L360.531 222.672C357.41 222.227 355.071 219.849 355.734 215.094Z" fill="#965541"/>
<path d="M361.775 229.64L362.371 229.776C362.147 230.746 362.684 231.563 363.896 231.844L364.121 230.874L366.227 231.366L365.723 233.527L363.86 233.091C362.647 232.81 361.263 231.822 361.775 229.64Z" fill="#965541"/>
<path d="M348.347 247.43C348.548 246.811 349.495 246.815 350.608 247.102L351.872 247.436C353.095 247.754 353.766 247.43 354.513 245.155L355.914 240.859L351.014 239.258L351.753 236.982L363.877 240.943L361.719 247.556C360.529 251.198 358.535 252.362 356.666 251.749C355.34 251.317 354.302 250.232 354.638 247.724C353.684 250.03 352.44 250.192 351.016 249.744L350.011 249.439C349.171 249.183 348.518 249.134 347.729 249.518L347.674 249.499L348.347 247.43ZM357.127 249.351C357.999 249.638 359.089 249.209 359.723 247.257L361.248 242.597L357.605 241.407L356.021 246.267C355.474 247.944 356.02 248.987 356.983 249.303L357.127 249.351Z" fill="#965541"/>
<path d="M345.334 255.184L356.907 260.532L352.053 271.046L350.245 270.212L354.1 261.867L351.131 260.495L348.169 266.911L346.416 266.103L349.377 259.687L346.142 258.193L342.287 266.539L340.479 265.705L345.334 255.184Z" fill="#965541"/>
<path d="M332.132 279.939L342.778 286.953L341.462 288.953L330.816 281.939L332.132 279.939Z" fill="#965541"/>
<path d="M319.622 296.826L331.469 295.711L332.675 295.645L325.319 289.734L326.815 287.87L336.756 295.855L335.316 297.646L323.64 298.578L322.405 298.641L329.761 304.552L328.266 306.416L318.325 298.431L319.622 296.826Z" fill="#965541"/>
<path d="M308.221 308.784L309.585 307.467L323.48 311.778L321.607 313.588L310.645 310.087L313.764 321.153L311.876 322.976L308.221 308.784Z" fill="#965541"/>
<path d="M298.626 317.236L306.595 327.193L304.728 328.686L296.759 318.729L298.626 317.236Z" fill="#965541"/>
<path d="M291.026 336.093L285.078 327.123L287.072 325.796L293.02 334.766L297.666 331.689L298.767 333.345L287.482 340.826L286.381 339.17L291.026 336.093Z" fill="#965541"/>
<path d="M274.928 333.323L280.705 344.695L270.375 349.947L269.475 348.174L277.669 344.01L276.182 341.091L269.879 344.294L269.003 342.572L275.306 339.369L273.692 336.192L265.498 340.356L264.598 338.582L274.928 333.323Z" fill="#965541"/>
<path d="M252.58 343.407L258.716 341.165L263.091 353.144L256.956 355.386C252.71 356.936 249.073 355.351 247.889 352.112L247.746 351.718C246.579 348.53 248.335 344.957 252.58 343.407ZM250.125 351.258C250.971 353.578 253.394 354.571 256.326 353.502L260.157 352.1L257.13 343.826L253.3 345.228C250.368 346.297 249.169 348.653 250.015 350.973L250.125 351.258Z" fill="#965541"/>
<path d="M213.442 357.459L212.924 352.39L215.305 352.15L215.827 357.254L223.003 364.182L220.188 364.47L214.687 359.085L210.699 365.441L207.883 365.729L213.442 357.459Z" fill="#965541"/>
<path d="M194.982 352.572C199.498 352.649 202.372 355.956 202.306 359.349L202.298 359.772C202.235 363.215 199.251 366.365 194.736 366.28C190.2 366.201 187.328 362.951 187.391 359.508L187.399 359.085C187.457 355.691 190.446 352.492 194.982 352.572ZM189.801 359.503C189.758 361.973 191.516 364.208 194.768 364.262C198.021 364.323 199.84 362.147 199.889 359.685L199.894 359.382C199.937 356.912 198.196 354.643 194.944 354.582C191.692 354.522 189.848 356.73 189.805 359.2L189.801 359.503Z" fill="#965541"/>
<path d="M174.835 350.952C179.365 351.603 181.112 354.375 180.64 357.648L179.574 365.026L177.222 364.689L178.291 357.277C178.625 354.945 177.287 353.339 174.369 352.919C171.375 352.485 169.943 353.69 169.608 356.028L168.54 363.441L166.173 363.103L167.239 355.726C167.691 352.599 170.075 350.267 174.835 350.952Z" fill="#965541"/>
<path d="M160.281 356.929L160.138 357.524C159.169 357.293 158.352 357.83 158.071 359.043L159.041 359.274L158.542 361.38L156.381 360.869L156.824 359.006C157.105 357.794 158.099 356.416 160.281 356.929Z" fill="#965541"/>
<path d="M142.54 343.433C143.159 343.635 143.148 344.581 142.861 345.701L142.527 346.958C142.203 348.181 142.526 348.852 144.8 349.606L149.087 351.027L150.709 346.135L152.983 346.889L148.974 358.995L142.379 356.81C138.745 355.607 137.588 353.614 138.208 351.738C138.647 350.412 139.732 349.382 142.239 349.724C139.934 348.763 139.779 347.52 140.234 346.097L140.546 345.092C140.802 344.252 140.858 343.599 140.474 342.81L140.493 342.755L142.54 343.433ZM140.585 352.204C140.298 353.076 140.72 354.166 142.664 354.806L147.316 356.344L148.519 352.709L143.668 351.105C141.999 350.552 140.949 351.09 140.632 352.059L140.585 352.204Z" fill="#965541"/>
<path d="M134.782 340.385L129.38 351.94L118.885 347.03L119.726 345.223L128.054 349.119L129.439 346.15L123.034 343.155L123.856 341.402L130.261 344.398L131.768 341.171L123.441 337.275L124.281 335.468L134.782 340.385Z" fill="#965541"/>
<path d="M110.101 327.076L103.041 337.697L101.049 336.374L108.11 325.753L110.101 327.076Z" fill="#965541"/>
<path d="M93.2509 314.483L94.3156 326.34L94.3744 327.547L100.319 320.214L102.174 321.724L94.1431 331.632L92.3597 330.186L91.4781 318.5L91.4148 317.265L85.4706 324.597L83.6078 323.088L91.639 313.179L93.2509 314.483Z" fill="#965541"/>
<path d="M81.3598 303.052L82.6693 304.423L78.2956 318.306L76.4929 316.427L80.0415 305.483L68.9591 308.557L67.1435 306.663L81.3598 303.052Z" fill="#965541"/>
<path d="M72.9455 293.425L62.9575 301.357L61.4722 299.483L71.4602 291.552L72.9455 293.425Z" fill="#965541"/>
<path d="M54.1255 285.744L63.1201 279.833L64.4319 281.832L55.4374 287.743L58.499 292.402L56.8364 293.495L49.4005 282.186L51.0632 281.092L54.1255 285.744Z" fill="#965541"/>
<path d="M56.9502 269.657L45.5545 275.389L40.3465 265.042L42.1261 264.149L46.26 272.362L49.1847 270.89L46.0111 264.575L47.7393 263.706L50.9129 270.021L54.0958 268.422L49.962 260.209L51.7417 259.316L56.9502 269.657Z" fill="#965541"/>
<path d="M46.9634 247.26L49.1769 253.4L37.1815 257.725L34.968 251.584C33.4329 247.333 35.038 243.705 38.2829 242.535L38.6768 242.392C41.8638 241.239 45.4353 243.009 46.9634 247.26ZM39.1288 244.777C36.8026 245.616 35.8035 248.031 36.865 250.97L38.2451 254.806L46.5292 251.816L45.1491 247.98C44.0876 245.041 41.7394 243.836 39.4202 244.675L39.1288 244.777Z" fill="#965541"/>
<path d="M33.0796 208.057L38.1532 207.56L38.3866 209.94L33.2773 210.441L26.3175 217.587L26.0444 214.765L31.4545 209.288L25.1154 205.273L24.8423 202.451L33.0796 208.057Z" fill="#965541"/>
<path d="M38.0363 189.616C37.9371 194.137 34.6176 196.996 31.2327 196.917L30.8095 196.909C27.3609 196.831 24.227 193.834 24.3261 189.313C24.4264 184.778 27.6829 181.914 31.1314 181.991L31.5547 181.999C34.9466 182.079 38.1366 185.081 38.0363 189.616ZM31.1215 184.407C28.6533 184.35 26.4107 186.108 26.343 189.359C26.2747 192.618 28.4354 194.443 30.9042 194.493L31.2076 194.498C33.6758 194.555 35.9587 192.822 36.027 189.563C36.0953 186.305 33.8937 184.462 31.4255 184.405L31.1215 184.407Z" fill="#965541"/>
<path d="M39.7385 169.496C39.0664 174.025 36.2959 175.758 33.0162 175.278L25.6485 174.185L25.9991 171.834L33.4018 172.93C35.7325 173.271 37.3443 171.947 37.7718 169.03C38.213 166.037 37.0148 164.606 34.6847 164.257L27.282 163.161L27.6338 160.796L35.0015 161.889C38.1275 162.348 40.4439 164.745 39.7385 169.496Z" fill="#965541"/>
<path d="M33.8295 154.891L33.2341 154.748C33.4659 153.779 32.9354 152.963 31.7242 152.668L31.4925 153.637L29.388 153.131L29.9058 150.971L31.7679 151.421C32.9797 151.709 34.3492 152.71 33.8295 154.891Z" fill="#965541"/>
<path d="M47.4037 137.22C47.1951 137.838 46.2498 137.82 45.1374 137.527L43.8807 137.185C42.6585 136.854 41.9877 137.178 41.2205 139.444L39.7779 143.729L44.6605 145.372L43.9003 147.638L31.8138 143.574L34.0266 136.988C35.2505 133.355 37.2495 132.213 39.1175 132.84C40.4429 133.286 41.4724 134.378 41.1086 136.883C42.0834 134.586 43.3256 134.438 44.7492 134.893L45.7533 135.213C46.5927 135.475 47.245 135.532 48.0335 135.154L48.0884 135.173L47.4037 137.22ZM38.6441 135.223C37.772 134.929 36.6828 135.351 36.0281 137.294L34.4694 141.944L38.1027 143.161L39.735 138.313C40.2954 136.644 39.7568 135.594 38.7954 135.271L38.6441 135.223Z" fill="#965541"/>
<path d="M50.4798 129.471L38.9505 124.021L43.9004 113.543L45.6994 114.398L41.7696 122.709L44.73 124.108L47.7526 117.719L49.5043 118.548L46.4818 124.937L49.7003 126.458L53.63 118.147L55.429 119.001L50.4798 129.471Z" fill="#965541"/>
<path d="M63.8817 104.846L53.2929 97.7456L54.623 95.7543L65.2118 102.855L63.8817 104.846Z" fill="#965541"/>
<path d="M76.5551 88.0375L64.696 89.0526L63.4903 89.1044L70.7982 95.082L69.282 96.9373L59.4055 88.8662L60.8589 87.0833L72.5469 86.2513L73.7812 86.1949L66.4733 80.2172L67.9895 78.362L77.8661 86.4331L76.5551 88.0375Z" fill="#965541"/>
<path d="M88.0226 76.2126L86.6458 77.5145L72.7888 73.0865L74.6813 71.2919L85.6075 74.8814L82.5834 63.7888L84.4841 61.9807L88.0226 76.2126Z" fill="#965541"/>
<path d="M97.7035 67.8238L89.8176 57.804L91.697 56.3263L99.5829 66.346L97.7035 67.8238Z" fill="#965541"/>
<path d="M105.446 49.0363L111.326 58.0568L109.32 59.3611L103.439 50.3476L98.768 53.3942L97.6821 51.725L109.03 44.3275L110.116 45.9967L105.446 49.0363Z" fill="#965541"/>
<path d="M121.533 51.932L115.852 40.5119L126.224 35.3482L127.109 37.1343L118.878 41.2315L120.336 44.1622L126.663 41.0106L127.524 42.7453L121.197 45.8968L122.781 49.0856L131.012 44.9885L131.897 46.7746L121.533 51.932Z" fill="#965541"/>
<path d="M143.963 42.0392L137.811 44.2306L133.531 32.2173L139.683 30.0259C143.94 28.5054 147.567 30.1246 148.722 33.3754L148.864 33.7693C150.004 36.9552 148.22 40.5187 143.963 42.0392ZM146.481 34.2073C145.649 31.8817 143.235 30.8685 140.297 31.916L136.456 33.2886L139.409 41.584L143.251 40.2184C146.188 39.1709 147.408 36.8238 146.583 34.4987L146.481 34.2073Z" fill="#965541"/>
</g>
<defs>
<clipPath id="clip0">
<rect x="31.5547" width="370.45" height="368.26" transform="rotate(4.91546 31.5547 0)" fill="white"/>
</clipPath>
</defs>
</svg>
