<svg width="347" height="346" viewBox="0 0 347 346" fill="none" xmlns="http://www.w3.org/2000/svg">
<path d="M141.825 10.7153L142.818 15.7068L140.474 16.1714L139.474 11.1377L131.681 4.91409L134.461 4.36495L140.438 9.20864L143.811 2.50632L146.591 1.95718L141.825 10.7153Z" fill="#965541"/>
<path d="M160.65 13.8411C156.145 14.1861 152.977 11.1658 152.716 7.78652L152.681 7.36411C152.421 3.92847 155.096 0.513948 159.601 0.168976C164.128 -0.175996 167.289 2.78795 167.549 6.22359L167.585 6.646C167.852 10.0253 165.177 13.4962 160.65 13.8411ZM165.156 6.44888C164.966 3.98479 163.002 1.92904 159.756 2.17545C156.511 2.42186 154.906 4.75218 155.096 7.21626L155.117 7.51899C155.307 9.98308 157.25 12.0811 160.495 11.8276C163.741 11.5812 165.367 9.20865 165.177 6.74457L165.156 6.44888Z" fill="#965541"/>
<path d="M180.855 13.5595C176.286 13.3342 174.287 10.7434 174.449 7.44154L174.808 0L177.18 0.112644L176.814 7.58939C176.701 9.94083 178.18 11.4122 181.122 11.5601C184.143 11.7079 185.452 10.3703 185.572 8.01884L185.938 0.542099L188.324 0.661783L187.958 8.10333C187.81 11.2574 185.649 13.7918 180.855 13.5595Z" fill="#965541"/>
<path d="M194.794 6.23765L194.878 5.63219C195.864 5.76595 196.624 5.16049 196.8 3.92845L195.815 3.79468L196.11 1.65445L198.314 1.95718L198.053 3.85101C197.87 5.08305 197.012 6.54742 194.794 6.23765Z" fill="#965541"/>
<path d="M213.71 18.016C213.076 17.8681 212.999 16.9318 213.182 15.7913L213.4 14.5029C213.611 13.2568 213.224 12.6161 210.894 12.081L206.494 11.0673L205.34 16.0869L203.009 15.5519L205.86 3.12585L212.633 4.68175C216.364 5.54066 217.702 7.42041 217.258 9.34239C216.948 10.7012 215.963 11.8346 213.428 11.722C215.808 12.4683 216.083 13.6862 215.766 15.1436L215.547 16.1714C215.371 17.0374 215.379 17.6851 215.836 18.4384L215.822 18.4947L213.71 18.016ZM214.829 9.10302C215.034 8.20891 214.506 7.15992 212.513 6.7023L207.733 5.60402L206.874 9.33535L211.859 10.4829C213.576 10.8772 214.569 10.2435 214.794 9.25087L214.829 9.10302Z" fill="#965541"/>
<path d="M221.736 20.3182L226.023 8.3075L236.935 12.2008L236.259 14.0805L227.6 10.9898L226.502 14.0735L233.155 16.446L232.507 18.2694L225.854 15.8969L224.657 19.2551L233.317 22.3457L232.648 24.2185L221.736 20.3182Z" fill="#965541"/>
<path d="M247.565 31.2446L253.599 20.0013L255.711 21.1348L249.677 32.3781L247.565 31.2446Z" fill="#965541"/>
<path d="M265.51 42.1922L263.335 30.4913L263.166 29.2945L257.943 37.1514L255.95 35.8278L263.011 25.2111L264.926 26.4854L266.904 38.0314L267.08 39.2494L272.304 31.3925L274.296 32.716L267.235 43.3327L265.51 42.1922Z" fill="#965541"/>
<path d="M278.428 52.4639L276.992 51.2249L280.04 36.9895L282.012 38.6932L279.505 49.9294L290.248 45.832L292.234 47.5498L278.428 52.4639Z" fill="#965541"/>
<path d="M287.708 61.2572L296.909 52.4217L298.57 54.1466L289.369 62.9821L287.708 61.2572Z" fill="#965541"/>
<path d="M307.173 67.1358L298.774 73.8663L297.274 72.0006L305.673 65.2701L302.188 60.9192L303.744 59.6731L312.213 70.2405L310.657 71.4867L307.173 67.1358Z" fill="#965541"/>
<path d="M305.871 83.4199L316.67 76.6472L322.823 86.4613L321.133 87.5173L316.247 79.7308L313.474 81.4698L317.226 87.454L315.586 88.4818L311.833 82.4976L308.813 84.3915L313.699 92.178L312.009 93.234L305.871 83.4199Z" fill="#965541"/>
<path d="M317.909 104.759L315.128 98.8521L326.659 93.4171L329.44 99.3238C331.369 103.414 330.116 107.174 326.997 108.645L326.617 108.828C323.555 110.264 319.838 108.842 317.909 104.759ZM325.948 106.491C328.18 105.435 328.947 102.935 327.617 100.112L325.878 96.4232L317.916 100.176L319.655 103.865C320.985 106.688 323.435 107.667 325.674 106.618L325.948 106.491Z" fill="#965541"/>
<path d="M335.424 142.488L330.426 143.459L329.968 141.108L335.009 140.129L341.26 132.357L341.802 135.138L336.931 141.101L343.619 144.501L344.161 147.282L335.424 142.488Z" fill="#965541"/>
<path d="M332.221 161.32C331.897 156.814 334.931 153.653 338.311 153.407L338.733 153.379C342.169 153.132 345.569 155.822 345.9 160.328C346.231 164.854 343.253 168.008 339.81 168.255L339.388 168.283C336.009 168.529 332.552 165.847 332.221 161.32ZM339.599 165.854C342.063 165.678 344.133 163.721 343.893 160.475C343.661 157.23 341.331 155.611 338.867 155.794L338.564 155.815C336.1 155.991 333.995 157.934 334.227 161.179C334.46 164.425 336.825 166.058 339.289 165.882L339.599 165.854Z" fill="#965541"/>
<path d="M332.418 181.526C332.657 176.957 335.255 174.964 338.564 175.14L346.005 175.534L345.878 177.907L338.402 177.513C336.05 177.386 334.572 178.865 334.417 181.807C334.255 184.828 335.586 186.144 337.937 186.271L345.414 186.665L345.287 189.059L337.846 188.665C334.699 188.489 332.164 186.32 332.418 181.526Z" fill="#965541"/>
<path d="M339.683 195.501L340.289 195.585C340.148 196.571 340.753 197.338 341.985 197.514L342.126 196.529L344.266 196.838L343.95 199.035L342.056 198.76C340.824 198.584 339.359 197.718 339.683 195.501Z" fill="#965541"/>
<path d="M327.828 214.376C327.976 213.742 328.919 213.664 330.052 213.855L331.341 214.08C332.587 214.291 333.227 213.911 333.777 211.581L334.804 207.18L329.785 206.005L330.327 203.674L342.745 206.582L341.161 213.355C340.289 217.086 338.402 218.417 336.487 217.966C335.128 217.649 334.002 216.657 334.121 214.129C333.368 216.509 332.143 216.776 330.686 216.452L329.658 216.234C328.799 216.051 328.145 216.058 327.391 216.509L327.335 216.495L327.828 214.376ZM336.74 215.537C337.634 215.748 338.683 215.227 339.148 213.228L340.267 208.455L336.536 207.582L335.375 212.559C334.973 214.277 335.607 215.27 336.593 215.502L336.74 215.537Z" fill="#965541"/>
<path d="M325.491 222.359L337.48 226.696L333.545 237.587L331.672 236.911L334.798 228.266L331.721 227.154L329.321 233.8L327.504 233.145L329.905 226.499L326.554 225.288L323.428 233.933L321.556 233.258L325.491 222.359Z" fill="#965541"/>
<path d="M314.459 248.155L325.667 254.23L324.526 256.335L313.319 250.26L314.459 248.155Z" fill="#965541"/>
<path d="M303.442 266.051L315.149 263.925L316.346 263.756L308.51 258.497L309.841 256.511L320.429 263.615L319.148 265.523L307.595 267.452L306.37 267.621L314.206 272.88L312.875 274.865L302.287 267.762L303.442 266.051Z" fill="#965541"/>
<path d="M293.107 278.942L294.353 277.512L308.567 280.617L306.856 282.581L295.634 280.033L299.689 290.79L297.965 292.769L293.107 278.942Z" fill="#965541"/>
<path d="M284.272 288.186L293.065 297.422L291.333 299.07L282.54 289.833L284.272 288.186Z" fill="#965541"/>
<path d="M278.316 307.624L271.621 299.196L273.494 297.704L280.189 306.131L284.554 302.667L285.793 304.223L275.19 312.643L273.951 311.087L278.316 307.624Z" fill="#965541"/>
<path d="M262.04 306.244L268.77 317.079L258.928 323.197L257.879 321.507L265.686 316.656L263.954 313.875L257.949 317.607L256.929 315.966L262.934 312.235L261.054 309.208L253.247 314.058L252.198 312.369L262.04 306.244Z" fill="#965541"/>
<path d="M240.638 318.205L246.559 315.445L251.944 327.005L246.024 329.765C241.927 331.673 238.167 330.406 236.71 327.28L236.534 326.9C235.098 323.823 236.541 320.113 240.638 318.205ZM238.864 326.238C239.906 328.477 242.405 329.258 245.235 327.942L248.931 326.217L245.207 318.233L241.511 319.958C238.681 321.275 237.689 323.725 238.73 325.963L238.864 326.238Z" fill="#965541"/>
<path d="M202.847 335.559L201.897 330.554L204.248 330.11L205.206 335.151L212.95 341.438L210.169 341.966L204.227 337.073L200.799 343.747L198.018 344.275L202.847 335.559Z" fill="#965541"/>
<path d="M184.037 332.271C188.543 331.962 191.689 335.01 191.915 338.397L191.943 338.819C192.175 342.255 189.472 345.648 184.966 345.951C180.44 346.26 177.3 343.268 177.067 339.833L177.039 339.41C176.807 336.024 179.51 332.581 184.037 332.271ZM179.468 339.622C179.637 342.086 181.58 344.162 184.825 343.937C188.071 343.719 189.697 341.396 189.535 338.939L189.514 338.636C189.345 336.172 187.416 334.06 184.171 334.278C180.925 334.496 179.278 336.855 179.447 339.319L179.468 339.622Z" fill="#965541"/>
<path d="M163.825 332.384C168.394 332.645 170.372 335.257 170.182 338.559L169.753 346L167.38 345.866L167.81 338.39C167.943 336.038 166.472 334.553 163.529 334.384C160.509 334.208 159.186 335.531 159.052 337.89L158.622 345.366L156.236 345.233L156.665 337.791C156.848 334.637 159.024 332.11 163.825 332.384Z" fill="#965541"/>
<path d="M149.837 339.586L149.745 340.192C148.76 340.044 147.992 340.649 147.816 341.881L148.802 342.029L148.485 344.169L146.289 343.846L146.57 341.952C146.746 340.72 147.619 339.262 149.837 339.586Z" fill="#965541"/>
<path d="M131.005 327.66C131.638 327.808 131.709 328.751 131.519 329.892L131.293 331.173C131.075 332.419 131.455 333.06 133.786 333.616L138.179 334.665L139.375 329.653L141.706 330.209L138.749 342.614L131.99 341.001C128.266 340.114 126.943 338.228 127.4 336.306C127.724 334.947 128.717 333.827 131.244 333.954C128.865 333.194 128.604 331.969 128.935 330.511L129.16 329.484C129.343 328.625 129.343 327.97 128.893 327.217L128.907 327.16L131.005 327.66ZM129.808 336.566C129.597 337.46 130.111 338.509 132.103 338.981L136.869 340.114L137.756 336.39L132.786 335.207C131.075 334.799 130.076 335.426 129.843 336.418L129.808 336.566Z" fill="#965541"/>
<path d="M123.014 325.288L118.621 337.263L107.745 333.271L108.428 331.398L117.059 334.567L118.185 331.49L111.546 329.054L112.215 327.238L118.854 329.674L120.079 326.33L111.448 323.161L112.131 321.289L123.014 325.288Z" fill="#965541"/>
<path d="M97.2832 314.143L91.1585 325.33L89.0605 324.182L95.1853 312.995L97.2832 314.143Z" fill="#965541"/>
<path d="M79.4158 303.04L81.4925 314.762L81.6545 315.959L86.9485 308.145L88.9267 309.489L81.7741 320.05L79.8734 318.761L77.9937 307.194L77.8247 305.969L72.5307 313.784L70.5454 312.439L77.698 301.879L79.4158 303.04Z" fill="#965541"/>
<path d="M66.589 292.67L68.0111 293.923L64.8431 308.131L62.886 306.413L65.4837 295.205L54.7056 299.218L52.7344 297.486L66.589 292.67Z" fill="#965541"/>
<path d="M57.3807 283.799L48.1091 292.557L46.4688 290.819L55.7404 282.06L57.3807 283.799Z" fill="#965541"/>
<path d="M37.9714 277.759L46.4264 271.099L47.9048 272.979L39.4498 279.639L42.8994 284.018L41.3365 285.25L32.959 274.619L34.5219 273.387L37.9714 277.759Z" fill="#965541"/>
<path d="M39.4079 261.489L28.5452 268.177L22.4697 258.314L24.1664 257.272L28.9887 265.1L31.7766 263.383L28.0735 257.363L29.7209 256.349L33.4239 262.369L36.4581 260.503L31.6358 252.674L33.3324 251.633L39.4079 261.489Z" fill="#965541"/>
<path d="M27.5383 240.03L30.2698 245.958L18.6891 251.295L15.9576 245.367C14.0638 241.262 15.3521 237.51 18.4849 236.067L18.8651 235.89C21.9415 234.468 25.6516 235.926 27.5383 240.03ZM19.5198 238.228C17.274 239.263 16.4855 241.755 17.795 244.592L19.4987 248.295L27.496 244.606L25.7924 240.903C24.4829 238.066 22.0401 237.066 19.8014 238.101L19.5198 238.228Z" fill="#965541"/>
<path d="M10.347 202.161L15.3594 201.231L15.7959 203.583L10.7483 204.519L4.42637 212.235L3.91246 209.447L8.83339 203.527L2.17359 200.07L1.65967 197.282L10.347 202.161Z" fill="#965541"/>
<path d="M13.7049 183.363C13.9936 187.876 10.9312 191.009 7.55201 191.22L7.12961 191.248C3.68707 191.467 0.307892 188.749 0.0192533 184.236C-0.269385 179.709 2.72964 176.576 6.17218 176.358L6.59458 176.33C9.9808 176.119 13.4163 178.836 13.7049 183.363ZM6.3693 178.766C3.90531 178.921 1.82148 180.864 2.03268 184.11C2.24388 187.362 4.55299 188.995 7.01697 188.834L7.31969 188.812C9.78368 188.658 11.9097 186.736 11.6985 183.483C11.4873 180.23 9.136 178.583 6.67202 178.738L6.3693 178.766Z" fill="#965541"/>
<path d="M13.6769 163.172C13.3953 167.741 10.7835 169.705 7.47473 169.508L0.0405273 169.05L0.188367 166.678L7.65777 167.135C10.0091 167.276 11.5016 165.819 11.6776 162.876C11.8606 159.856 10.5441 158.532 8.1928 158.384L0.723404 157.927L0.871243 155.54L8.30544 155.998C11.4593 156.188 13.9726 158.377 13.6769 163.172Z" fill="#965541"/>
<path d="M6.53838 149.127L5.93294 149.035C6.08078 148.049 5.48238 147.282 4.25039 147.092L4.10255 148.078L1.9624 147.754L2.29328 145.557L4.18703 145.846C5.41902 146.029 6.86926 146.909 6.53838 149.127Z" fill="#965541"/>
<path d="M18.5486 130.357C18.3937 130.991 17.4504 131.054 16.317 130.857L15.0357 130.625C13.7896 130.399 13.149 130.78 12.5787 133.103L11.5087 137.496L16.5141 138.714L15.9509 141.037L3.56055 138.024L5.20086 131.272C6.10901 127.548 8.00276 126.239 9.91763 126.703C11.2763 127.034 12.3957 128.034 12.2479 130.561C13.0223 128.189 14.2472 127.935 15.7045 128.266L16.7323 128.499C17.5912 128.689 18.2459 128.689 18.9992 128.245L19.0555 128.259L18.5486 130.357ZM9.65011 129.118C8.75604 128.9 7.70708 129.414 7.22133 131.406L6.06677 136.172L9.79091 137.074L11.0018 132.103C11.4171 130.392 10.7906 129.393 9.80499 129.153L9.65011 129.118Z" fill="#965541"/>
<path d="M20.949 122.374L8.99512 117.931L13.029 107.068L14.8946 107.765L11.6914 116.382L14.7608 117.523L17.2248 110.898L19.0411 111.574L16.5772 118.199L19.9141 119.438L23.1173 110.821L24.9829 111.518L20.949 122.374Z" fill="#965541"/>
<path d="M32.192 96.6908L21.0337 90.5235L22.1882 88.4255L33.3466 94.5928L32.192 96.6908Z" fill="#965541"/>
<path d="M43.3784 78.8578L31.6498 80.8854L30.453 81.0403L38.2462 86.3698L36.8946 88.3481L26.3628 81.1529L27.6581 79.2521L39.2318 77.4216L40.4568 77.2597L32.6636 71.9302L34.0152 69.9519L44.547 77.147L43.3784 78.8578Z" fill="#965541"/>
<path d="M53.7904 66.0939L52.5302 67.509L38.3447 64.2845L40.0766 62.3344L51.2701 64.9745L47.3066 54.1818L49.0455 52.2175L53.7904 66.0939Z" fill="#965541"/>
<path d="M62.7169 56.9063L54.0015 47.5991L55.7474 45.9658L64.4629 55.273L62.7169 56.9063Z" fill="#965541"/>
<path d="M68.821 37.5245L75.4526 46.008L73.5659 47.4794L66.9343 39.003L62.5414 42.4386L61.3164 40.8686L71.989 32.5259L73.2139 34.0959L68.821 37.5245Z" fill="#965541"/>
<path d="M85.0972 39.0311L78.4585 28.1399L88.3496 22.1064L89.3845 23.8101L81.535 28.5975L83.2386 31.3925L89.2719 27.7104L90.2786 29.3649L84.2453 33.0469L86.0968 36.0883L93.9464 31.3009L94.9813 33.0047L85.0972 39.0311Z" fill="#965541"/>
<path d="M106.597 27.2528L100.655 29.9633L95.3613 18.361L101.303 15.6505C105.414 13.7707 109.167 15.0732 110.596 18.2131L110.772 18.5933C112.18 21.6699 110.708 25.3731 106.597 27.2528ZM108.435 19.234C107.407 16.9881 104.915 16.1855 102.077 17.4809L98.3674 19.1776L102.021 27.1894L105.731 25.4998C108.568 24.2044 109.582 21.7614 108.561 19.5156L108.435 19.234Z" fill="#965541"/>
</svg>
