<svg width="484" height="479" viewBox="0 0 484 479" fill="none" xmlns="http://www.w3.org/2000/svg">
<path d="M292.37 19.3417L294.2 21.5043L286.46 19.8552L289.03 18.6307L289.87 14.7696L286.38 5.4082L293.19 6.85981L290.9 8.14355L292.85 14.3351L297.24 9.82228L294.77 7.19556L299.74 8.25217L293.43 14.6017L292.37 19.3417Z" fill="#010A0C"/>
<path d="M307.36 19.6576C306.52 22.7681 303.84 24.2098 300.73 23.3902C297.46 22.5213 296.21 19.7958 296.99 16.9124C297.83 13.8216 300.51 12.3602 303.62 13.1798C306.89 14.0487 308.14 16.7742 307.36 19.6576ZM303.89 19.1145C304.66 16.2903 304.6 14.0685 303.26 13.713C302.12 13.4069 301.16 14.8486 300.45 17.4555C299.68 20.2797 299.74 22.5015 301.08 22.857C302.22 23.1631 303.18 21.7214 303.89 19.1145Z" fill="#010A0C"/>
<path d="M314.03 27.4391L314.79 25.158C313.71 26.2245 312.32 26.7775 311.08 26.3726C309.49 25.8591 308.41 24.2989 309.14 22.0968L310.49 18.0382L308.92 16.241L314.44 16.3101L312.42 22.4226C312.04 23.5582 312.48 24.4371 313.32 24.7037C313.71 24.8321 314.28 24.842 314.87 24.6346L316.42 19.9539L314.85 18.1468L320.37 18.2159L317.89 25.711L319.46 27.5181L314.03 27.4391Z" fill="#010A0C"/>
<path d="M327.08 17.0309C326.04 18.4628 324.46 20.181 323.6 20.8525L322.48 20.5958C323.32 19.6379 324.55 17.8505 325.27 16.5668L327.08 17.0309Z" fill="#010A0C"/>
<path d="M335.07 24.3185L332.96 27.044C332.77 26.2046 332.29 25.6714 331.74 25.4443C331.27 25.2567 330.72 25.2962 330.36 25.5233L328.24 30.6977L329.58 32.8604L322.98 30.2237L325.28 29.5127L327.58 23.9038L326.14 21.9979L331.53 22.4324L330.46 25.0493C331.62 23.4693 332.81 23.0348 333.83 23.4397C334.27 23.6372 334.69 23.9137 335.07 24.3185Z" fill="#010A0C"/>
<path d="M341.92 33.9959C341.03 35.1512 339.03 37.2545 336.09 35.9412C333.25 34.6673 332.52 31.7247 333.72 29.1177C334.79 26.7872 337.55 24.9407 340.65 26.3429C342.94 27.3699 343.71 29.3843 342.73 32.0604L336.37 29.2066C335.75 30.8952 336.02 32.9294 338.31 33.9564C339.31 34.4007 340.75 34.5488 341.92 33.9959ZM336.65 28.5943L340.01 30.1052C340.19 29.8583 340.34 29.5917 340.44 29.3646C340.98 28.1895 341 27.1131 340.11 26.7181C338.87 26.1553 337.43 27.1526 336.65 28.5943Z" fill="#010A0C"/>
<path d="M352.31 42.0438L353.2 44.2656L347.12 41.007L349.49 40.533L352.38 35.2697L351.16 33.2158L356.58 34.2625L352.31 42.0438ZM354.61 30.1151C355.17 29.0882 356.36 28.7821 357.37 29.3252C358.34 29.8485 358.72 31.0532 358.18 32.0308C357.64 33.0084 356.42 33.3837 355.43 32.8504C354.43 32.3073 354.07 31.1026 354.61 30.1151Z" fill="#010A0C"/>
<path d="M365 51.1979L359.26 47.7812L361.46 47.2973L363.93 43.2585C364.58 42.192 364.24 41.2243 363.42 40.7404C362.96 40.4738 362.38 40.3356 361.75 40.4244L358.6 45.589L359.2 47.7318L353.46 44.3151L355.85 43.9498L359 38.7852L357.88 36.6819L363.14 37.9557L361.94 39.9208C363.38 39.0815 364.94 39.0222 366.13 39.7332C367.53 40.5627 368.24 42.3303 367.02 44.3349L364.22 48.9267L365 51.1979Z" fill="#010A0C"/>
<path d="M369.13 54.0318L370.07 45.263L368.87 43.4559L373.53 44.4335L372.51 51.9877L377 49.4696L375.3 45.8456L379.68 48.7784L369.46 54.249L369.13 54.0318Z" fill="#010A0C"/>
<path d="M379.06 59.1372L379.63 61.4578L374.06 57.3992L376.48 57.261L380.08 52.4421L379.16 50.24L384.38 52.0174L379.06 59.1372ZM383.02 47.6429C383.72 46.7048 384.94 46.5666 385.86 47.238C386.75 47.8898 386.95 49.134 386.28 50.0326C385.61 50.9213 384.34 51.1287 383.44 50.4671C382.53 49.7956 382.34 48.5514 383.02 47.6429Z" fill="#010A0C"/>
<path d="M383.14 64.4894C381.89 63.5118 381.49 61.7047 382.91 59.9371L386.89 54.97L385.39 53.7949L391.83 53.9233L389.83 56.4216L392.09 58.1892L391.53 58.5941L389.42 56.945L385.91 61.3196C384.98 62.4749 385.1 63.5908 385.93 64.2426C386.27 64.5092 386.74 64.6968 387.31 64.756C385.66 65.4769 384.15 65.2695 383.14 64.4894Z" fill="#010A0C"/>
<path d="M396.16 69.8612C394.98 70.7203 392.46 72.1917 390.01 70.118C387.64 68.1035 387.78 65.0818 389.67 62.9094C391.36 60.9739 394.53 59.9667 397.11 62.1589C399.01 63.7783 399.19 65.9212 397.48 68.222L392.19 63.7191C391.11 65.1707 390.8 67.195 392.71 68.8145C393.54 69.5255 394.87 70.0686 396.16 69.8612ZM392.63 63.2155L395.43 65.5953C395.68 65.4077 395.89 65.1904 396.05 65.0028C396.9 64.0252 397.23 62.9982 396.49 62.3662C395.46 61.4874 393.79 62.0404 392.63 63.2155Z" fill="#010A0C"/>
<path d="M404.02 80.842L399.17 78.482L400.61 76.9909C399.48 77.4352 398.23 77.4451 397.1 76.3885C395.16 74.5715 395.91 71.7374 397.73 69.8612C399.67 67.8468 402.73 67.0469 405.03 69.2095C405.59 69.7329 406 70.3451 406.19 71.0462L407.64 69.5452L407 67.2543L411.95 69.6539L403.38 78.5412L404.02 80.842ZM403.52 73.8112C405.36 71.8954 405.84 70.8191 404.92 69.96C403.77 68.8737 402.09 69.7427 400.73 71.145C399.01 72.9224 398.84 74.5419 400.17 75.796C400.41 76.0231 400.69 76.2206 401.05 76.3687L403.52 73.8112Z" fill="#010A0C"/>
<path d="M404.54 80.9309C405.3 80.2001 406.44 80.2001 407.18 80.9506C407.91 81.6912 407.89 82.8564 407.14 83.5773C406.39 84.2981 405.19 84.2883 404.47 83.5575C403.73 82.8071 403.79 81.6517 404.54 80.9309Z" fill="#010A0C"/>
<path d="M435 118.485L434.75 121.289L430.43 114.732L433.13 115.651L436.49 113.498L440.7 104.423L444.49 110.19L441.95 109.509L438.91 115.256L445.24 115.108L445.36 111.523L448.13 115.73L439.12 115.838L435 118.485Z" fill="#010A0C"/>
<path d="M445.4 129.14C442.58 130.759 439.65 129.93 438.03 127.175C436.32 124.281 437.39 121.477 440 119.976C442.8 118.366 445.75 119.186 447.37 121.941C449.08 124.834 448.02 127.639 445.4 129.14ZM443.33 126.335C445.89 124.864 447.44 123.254 446.74 122.069C446.14 121.062 444.44 121.408 442.07 122.771C439.51 124.242 437.96 125.851 438.66 127.036C439.26 128.054 440.97 127.698 443.33 126.335Z" fill="#010A0C"/>
<path d="M444.59 139.311L446.75 138.215C445.22 138.215 443.84 137.642 443.25 136.496C442.49 135.025 442.84 133.179 444.93 132.122L448.78 130.177L448.95 127.807L452.82 131.697L447.02 134.62C445.95 135.163 445.63 136.092 446.03 136.862C446.22 137.217 446.61 137.632 447.18 137.889L451.61 135.647L451.78 133.277L455.65 137.168L448.54 140.752L448.37 143.122L444.59 139.311Z" fill="#010A0C"/>
<path d="M461.27 140.98C459.52 141.276 457.17 141.395 456.07 141.276L455.46 140.308C456.74 140.21 458.89 139.805 460.32 139.39L461.27 140.98Z" fill="#010A0C"/>
<path d="M461.75 151.694L458.31 152.168C458.77 151.447 458.82 150.726 458.58 150.183C458.38 149.719 457.96 149.373 457.54 149.285L452.34 151.487L451.75 153.955L448.94 147.487L451.08 148.574L456.71 146.184L457.04 143.824L460.56 147.882L457.93 148.998C459.88 148.672 461.04 149.196 461.47 150.193C461.68 150.657 461.78 151.141 461.75 151.694Z" fill="#010A0C"/>
<path d="M459.7 163.336C458.25 163.534 455.32 163.642 454.18 160.66C453.07 157.777 454.65 155.18 457.36 154.163C459.78 153.254 463.05 153.866 464.26 157.016C465.15 159.337 464.27 161.302 461.66 162.517L459.19 156.068C457.54 156.839 456.29 158.468 457.18 160.789C457.57 161.806 458.47 162.912 459.7 163.336ZM459.82 155.831L461.13 159.248C461.44 159.199 461.73 159.11 461.96 159.021C463.18 158.567 463.96 157.816 463.62 156.918C463.13 155.654 461.4 155.348 459.82 155.831Z" fill="#010A0C"/>
<path d="M461.35 176.272L460.4 178.474L458.4 171.927L460.42 173.241L466.22 171.513L466.82 169.212L469.92 173.725L461.35 176.272ZM471.49 169.409C472.62 169.074 473.68 169.686 474.01 170.762C474.33 171.809 473.73 172.925 472.66 173.251C471.58 173.567 470.45 172.984 470.12 171.917C469.8 170.831 470.4 169.735 471.49 169.409Z" fill="#010A0C"/>
<path d="M463.82 191.618L462.19 185.199L464.09 186.394L468.72 185.248C469.95 184.942 470.39 184.024 470.15 183.106C470.02 182.592 469.7 182.098 469.19 181.723L463.27 183.195L462.16 185.13L460.53 178.711L462.49 180.114L468.41 178.642L469.12 176.371L471.94 180.933L469.68 181.496C471.3 181.901 472.45 182.948 472.79 184.281C473.19 185.841 472.43 187.589 470.13 188.162L464.86 189.465L463.82 191.618Z" fill="#010A0C"/>
<path d="M464.72 196.486L471.65 190.917L472.08 188.803L474.69 192.734L468.58 197.385L473.57 198.728L474.95 194.975L475.96 200.1L464.8 196.871L464.72 196.486Z" fill="#010A0C"/>
<path d="M468.13 207.042L466.88 209.086L465.83 202.332L467.65 203.912L473.65 203.003L474.57 200.801L477 205.699L468.13 207.042ZM479.15 201.631C480.32 201.453 481.28 202.204 481.46 203.319C481.63 204.396 480.88 205.423 479.77 205.601C478.66 205.768 477.61 205.028 477.44 203.932C477.27 202.816 478.02 201.809 479.15 201.631Z" fill="#010A0C"/>
<path d="M467.2 213.658C467.01 212.098 468.02 210.538 470.29 210.271L476.66 209.521L476.43 207.635L480.91 212.207L477.71 212.582L478.05 215.406L477.36 215.308L477.04 212.661L471.42 213.323C469.94 213.5 469.22 214.369 469.35 215.416C469.4 215.841 469.6 216.305 469.96 216.749C468.28 216.107 467.35 214.922 467.2 213.658Z" fill="#010A0C"/>
<path d="M472.6 226.515C471.15 226.308 468.31 225.587 468.06 222.417C467.82 219.346 470.07 217.292 472.96 217.065C475.54 216.868 478.51 218.359 478.77 221.716C478.97 224.185 477.56 225.834 474.71 226.278L474.17 219.406C472.37 219.682 470.7 220.907 470.9 223.375C470.98 224.452 471.53 225.765 472.6 226.515ZM474.84 219.346L475.13 222.98C475.44 223.02 475.75 223.01 475.99 222.99C477.29 222.891 478.26 222.388 478.18 221.43C478.07 220.087 476.49 219.317 474.84 219.346Z" fill="#010A0C"/>
<path d="M470.32 239.807L468.57 234.751L470.65 234.692C469.53 234.218 468.63 233.359 468.59 231.828C468.52 229.191 471.07 227.71 473.7 227.631C476.51 227.552 479.25 229.112 479.34 232.253C479.36 233.023 479.22 233.724 478.85 234.366L480.95 234.307L482.14 232.243L483.94 237.397L471.52 237.733L470.32 239.807ZM474.99 234.475C477.66 234.405 478.77 233.971 478.74 232.717C478.7 231.147 476.88 230.594 474.93 230.643C472.44 230.712 471.16 231.729 471.21 233.546C471.22 233.872 471.27 234.208 471.42 234.573L474.99 234.475Z" fill="#010A0C"/>
<path d="M470.64 240.222C471.7 240.241 472.51 241.041 472.49 242.088C472.47 243.115 471.62 243.925 470.58 243.915C469.54 243.895 468.7 243.056 468.71 242.029C468.73 240.982 469.6 240.202 470.64 240.222Z" fill="#010A0C"/>
<path d="M465.46 288.065L463.28 289.882L464.9 282.219L466.16 284.747L470.08 285.557L479.54 282.042L478.12 288.776L476.8 286.525L470.55 288.49L475.15 292.795L477.8 290.336L476.76 295.254L470.29 289.063L465.46 288.065Z" fill="#010A0C"/>
<path d="M465.23 302.877C462.07 302.058 460.59 299.431 461.4 296.35C462.26 293.111 465.01 291.867 467.94 292.618C471.08 293.427 472.58 296.064 471.76 299.145C470.92 302.384 468.16 303.638 465.23 302.877ZM465.76 299.451C468.63 300.191 470.88 300.122 471.23 298.799C471.53 297.664 470.07 296.725 467.42 296.044C464.55 295.303 462.3 295.373 461.95 296.696C461.65 297.831 463.11 298.77 465.76 299.451Z" fill="#010A0C"/>
<path d="M457.4 309.503L459.71 310.234C458.62 309.168 458.05 307.805 458.45 306.581C458.96 305.01 460.53 303.934 462.77 304.645L466.89 305.949L468.7 304.388L468.67 309.839L462.47 307.874C461.32 307.509 460.43 307.953 460.16 308.773C460.04 309.158 460.02 309.721 460.24 310.303L464.98 311.804L466.8 310.244L466.77 315.695L459.17 313.295L457.36 314.856L457.4 309.503Z" fill="#010A0C"/>
<path d="M468.03 322.311C466.58 321.294 464.82 319.744 464.13 318.904L464.38 317.798C465.36 318.618 467.17 319.833 468.48 320.534L468.03 322.311Z" fill="#010A0C"/>
<path d="M460.71 330.25L457.94 328.187C458.78 327.999 459.33 327.515 459.55 326.972C459.74 326.508 459.69 325.965 459.46 325.609L454.2 323.555L452.02 324.888L454.64 318.351L455.38 320.613L461.07 322.844L462.99 321.403L462.59 326.735L459.93 325.698C461.54 326.824 461.99 327.999 461.59 329.016C461.4 329.451 461.13 329.865 460.71 330.25Z" fill="#010A0C"/>
<path d="M450.95 337.084C449.78 336.215 447.63 334.25 448.95 331.347C450.22 328.532 453.2 327.792 455.84 328.957C458.21 330.004 460.09 332.709 458.7 335.78C457.68 338.042 455.65 338.822 452.93 337.864L455.78 331.574C454.06 330.971 452.01 331.258 450.99 333.519C450.52 334.506 450.37 335.919 450.95 337.084ZM456.38 331.84L454.87 335.168C455.12 335.346 455.4 335.484 455.62 335.583C456.81 336.106 457.9 336.126 458.3 335.247C458.86 334.023 457.85 332.601 456.38 331.84Z" fill="#010A0C"/>
<path d="M442.87 347.393L440.63 348.292L443.89 342.268L444.38 344.608L449.73 347.423L451.8 346.208L450.78 351.56L442.87 347.393ZM454.96 349.595C456 350.148 456.32 351.313 455.78 352.311C455.26 353.269 454.04 353.654 453.05 353.13C452.06 352.607 451.67 351.402 452.2 350.425C452.74 349.427 453.96 349.062 454.96 349.595Z" fill="#010A0C"/>
<path d="M433.68 359.974L437.1 354.286L437.6 356.458L441.71 358.868C442.8 359.509 443.77 359.164 444.26 358.344C444.53 357.89 444.67 357.317 444.56 356.695L439.31 353.614L437.14 354.216L440.56 348.529L440.94 350.889L446.19 353.97L448.31 352.844L447.06 358.038L445.06 356.863C445.92 358.285 445.98 359.825 445.28 361.001C444.45 362.383 442.66 363.094 440.63 361.909L435.96 359.164L433.68 359.974Z" fill="#010A0C"/>
<path d="M430.85 364.082L439.74 364.951L441.56 363.756L440.6 368.357L432.95 367.409L435.53 371.823L439.19 370.115L436.25 374.45L430.63 364.398L430.85 364.082Z" fill="#010A0C"/>
<path d="M425.73 373.917L423.38 374.5L427.46 368.979L427.62 371.369L432.52 374.894L434.74 373.976L432.97 379.141L425.73 373.917ZM437.4 377.758C438.36 378.449 438.5 379.654 437.83 380.563C437.18 381.442 435.91 381.649 435.01 380.997C434.11 380.345 433.89 379.091 434.55 378.203C435.22 377.284 436.48 377.087 437.4 377.758Z" fill="#010A0C"/>
<path d="M420.35 377.985C421.33 376.751 423.16 376.336 424.96 377.729L430.01 381.629L431.19 380.138L431.11 386.497L428.57 384.532L426.8 386.774L426.38 386.221L428.04 384.127L423.58 380.691C422.41 379.783 421.27 379.911 420.62 380.731C420.36 381.066 420.17 381.53 420.11 382.103C419.37 380.474 419.56 378.993 420.35 377.985Z" fill="#010A0C"/>
<path d="M415.01 390.862C414.13 389.707 412.62 387.218 414.71 384.789C416.73 382.439 419.8 382.548 422.01 384.404C423.99 386.063 425.03 389.183 422.82 391.751C421.2 393.637 419.02 393.834 416.68 392.156L421.2 386.902C419.72 385.846 417.67 385.559 416.04 387.445C415.33 388.285 414.79 389.598 415.01 390.862ZM421.71 387.337L419.32 390.121C419.51 390.358 419.73 390.576 419.92 390.734C420.92 391.573 421.96 391.889 422.59 391.148C423.48 390.112 422.91 388.472 421.71 387.337Z" fill="#010A0C"/>
<path d="M403.91 398.732L406.27 393.923L407.79 395.335C407.34 394.219 407.31 392.985 408.37 391.869C410.2 389.944 413.07 390.665 414.99 392.452C417.04 394.358 417.87 397.37 415.69 399.661C415.16 400.214 414.55 400.618 413.83 400.816L415.36 402.238L417.68 401.596L415.28 406.504L406.22 398.1L403.91 398.732ZM411.02 398.199C412.97 400.006 414.07 400.47 414.93 399.562C416.02 398.416 415.13 396.757 413.7 395.434C411.88 393.745 410.25 393.587 408.99 394.911C408.77 395.148 408.56 395.424 408.41 395.78L411.02 398.199Z" fill="#010A0C"/>
<path d="M403.82 399.246C404.57 399.996 404.57 401.122 403.82 401.853C403.08 402.574 401.89 402.564 401.16 401.833C400.43 401.102 400.42 399.917 401.16 399.196C401.92 398.456 403.09 398.505 403.82 399.246Z" fill="#010A0C"/>
<path d="M366.01 429.562L363.17 429.334L369.78 425.029L368.87 427.695L371.07 430.993L380.29 435.082L374.48 438.864L375.15 436.355L369.31 433.393L369.5 439.644L373.14 439.742L368.9 442.507L368.73 433.61L366.01 429.562Z" fill="#010A0C"/>
<path d="M355.3 439.9C353.64 437.126 354.47 434.222 357.24 432.603C360.16 430.895 363.01 431.931 364.54 434.499C366.19 437.254 365.37 440.177 362.6 441.796C359.68 443.505 356.84 442.468 355.3 439.9ZM358.12 437.837C359.63 440.355 361.27 441.875 362.47 441.174C363.49 440.582 363.12 438.893 361.73 436.573C360.22 434.055 358.58 432.534 357.38 433.235C356.36 433.827 356.73 435.506 358.12 437.837Z" fill="#010A0C"/>
<path d="M344.99 439.16L346.11 441.293C346.1 439.782 346.67 438.419 347.83 437.827C349.31 437.066 351.19 437.392 352.27 439.456L354.27 443.248L356.67 443.396L352.76 447.247L349.76 441.54C349.2 440.483 348.26 440.177 347.48 440.572C347.12 440.76 346.7 441.155 346.45 441.717L348.75 446.082L351.15 446.23L347.24 450.081L343.56 443.09L341.16 442.942L344.99 439.16Z" fill="#010A0C"/>
<path d="M343.4 455.641C343.09 453.913 342.95 451.592 343.07 450.516L344.04 449.904C344.15 451.168 344.58 453.291 345 454.693L343.4 455.641Z" fill="#010A0C"/>
<path d="M332.56 456.184L332.06 452.787C332.8 453.241 333.52 453.281 334.07 453.044C334.54 452.846 334.89 452.431 334.97 452.017L332.7 446.902L330.2 446.329L336.73 443.515L335.64 445.638L338.09 451.177L340.48 451.493L336.39 454.999L335.25 452.412C335.59 454.337 335.07 455.483 334.06 455.917C333.61 456.105 333.12 456.214 332.56 456.184Z" fill="#010A0C"/>
<path d="M320.74 454.258C320.53 452.827 320.4 449.933 323.41 448.788C326.32 447.672 328.96 449.212 330.01 451.888C330.95 454.278 330.35 457.507 327.17 458.722C324.83 459.62 322.83 458.761 321.58 456.184L328.09 453.696C327.3 452.076 325.64 450.852 323.3 451.74C322.28 452.135 321.16 453.044 320.74 454.258ZM328.34 454.318L324.89 455.631C324.94 455.937 325.03 456.223 325.12 456.451C325.59 457.655 326.35 458.426 327.27 458.07C328.55 457.586 328.84 455.878 328.34 454.318Z" fill="#010A0C"/>
<path d="M307.66 455.957L305.43 455.029L312.05 453.014L310.73 455.019L312.52 460.746L314.86 461.319L310.31 464.41L307.66 455.957ZM314.68 465.93C315.03 467.046 314.42 468.103 313.32 468.429C312.27 468.755 311.12 468.172 310.79 467.106C310.46 466.039 311.05 464.913 312.12 464.587C313.22 464.271 314.34 464.854 314.68 465.93Z" fill="#010A0C"/>
<path d="M292.15 458.505L298.63 456.846L297.44 458.732L298.64 463.294C298.96 464.499 299.89 464.933 300.82 464.696C301.33 464.568 301.84 464.252 302.21 463.738L300.68 457.902L298.71 456.826L305.19 455.167L303.78 457.112L305.31 462.948L307.62 463.63L303.02 466.444L302.44 464.222C302.04 465.822 300.99 466.967 299.64 467.313C298.06 467.718 296.29 466.987 295.69 464.716L294.33 459.522L292.15 458.505Z" fill="#010A0C"/>
<path d="M287.22 459.433L292.9 466.237L295.05 466.651L291.08 469.249L286.33 463.245L285.01 468.172L288.82 469.505L283.64 470.542L286.84 459.502L287.22 459.433Z" fill="#010A0C"/>
<path d="M276.56 462.849L274.48 461.625L281.31 460.549L279.72 462.356L280.68 468.271L282.91 469.16L277.97 471.589L276.56 462.849ZM282.1 473.702C282.29 474.857 281.53 475.815 280.4 475.993C279.31 476.161 278.26 475.43 278.09 474.334C277.91 473.238 278.66 472.201 279.76 472.033C280.89 471.846 281.92 472.586 282.1 473.702Z" fill="#010A0C"/>
<path d="M269.86 461.99C271.44 461.793 273.03 462.771 273.31 465.012L274.11 471.293L276.01 471.055L271.41 475.509L271.01 472.349L268.16 472.705L268.26 472.023L270.93 471.687L270.22 466.148C270.03 464.686 269.14 463.985 268.09 464.113C267.66 464.163 267.2 464.37 266.75 464.726C267.39 463.067 268.59 462.148 269.86 461.99Z" fill="#010A0C"/>
<path d="M256.85 467.402C257.05 465.97 257.76 463.156 260.97 462.889C264.08 462.632 266.18 464.844 266.42 467.688C266.64 470.236 265.15 473.179 261.75 473.455C259.25 473.662 257.57 472.29 257.11 469.475L264.07 468.893C263.77 467.115 262.53 465.486 260.03 465.693C258.92 465.792 257.6 466.355 256.85 467.402ZM264.12 469.564L260.44 469.871C260.4 470.177 260.41 470.483 260.43 470.72C260.54 472.003 261.05 472.951 262.03 472.872C263.39 472.764 264.16 471.204 264.12 469.564Z" fill="#010A0C"/>
<path d="M243.38 465.249L248.49 463.481L248.56 465.535C249.03 464.429 249.9 463.531 251.45 463.481C254.12 463.393 255.64 465.901 255.73 468.498C255.83 471.283 254.27 473.988 251.08 474.097C250.31 474.127 249.59 473.988 248.94 473.623L249.01 475.697L251.11 476.852L245.9 478.659L245.47 466.394L243.38 465.249ZM248.81 469.821C248.9 472.458 249.35 473.554 250.61 473.514C252.2 473.465 252.75 471.668 252.68 469.732C252.59 467.273 251.55 466.019 249.71 466.078C249.38 466.088 249.04 466.138 248.68 466.296L248.81 469.821Z" fill="#010A0C"/>
<path d="M242.98 465.575C242.96 466.622 242.15 467.421 241.09 467.402C240.05 467.382 239.23 466.543 239.24 465.516C239.26 464.489 240.11 463.659 241.15 463.669C242.22 463.679 243 464.538 242.98 465.575Z" fill="#010A0C"/>
<path d="M194.48 460.766L192.62 458.623L200.39 460.164L197.84 461.427L197.05 465.298L200.67 474.62L193.84 473.267L196.11 471.954L194.07 465.792L189.74 470.364L192.25 472.961L187.27 471.974L193.5 465.535L194.48 460.766Z" fill="#010A0C"/>
<path d="M179.51 460.647C180.31 457.517 182.97 456.046 186.09 456.826C189.38 457.646 190.66 460.361 189.92 463.254C189.12 466.365 186.46 467.856 183.34 467.076C180.05 466.247 178.77 463.541 179.51 460.647ZM182.99 461.141C182.26 463.975 182.34 466.197 183.69 466.533C184.84 466.819 185.78 465.368 186.45 462.751C187.18 459.917 187.1 457.695 185.75 457.359C184.6 457.073 183.66 458.524 182.99 461.141Z" fill="#010A0C"/>
<path d="M172.72 452.945L172 455.236C173.07 454.15 174.45 453.587 175.69 453.972C177.29 454.466 178.38 456.006 177.68 458.218L176.39 462.296L177.99 464.074L172.47 464.084L174.41 457.942C174.77 456.806 174.32 455.927 173.48 455.67C173.09 455.552 172.52 455.542 171.93 455.759L170.44 460.45L172.04 462.227L166.52 462.237L168.9 454.713L167.3 452.935L172.72 452.945Z" fill="#010A0C"/>
<path d="M159.84 463.531C160.86 462.089 162.41 460.341 163.26 459.66L164.39 459.907C163.56 460.875 162.35 462.682 161.65 463.975L159.84 463.531Z" fill="#010A0C"/>
<path d="M151.74 456.352L153.81 453.597C154.01 454.426 154.5 454.96 155.05 455.177C155.53 455.364 156.07 455.305 156.43 455.078L158.48 449.874L157.11 447.731L163.75 450.279L161.46 451.019L159.24 456.658L160.71 458.544L155.31 458.179L156.35 455.552C155.22 457.152 154.03 457.606 153 457.211C152.55 457.033 152.13 456.757 151.74 456.352Z" fill="#010A0C"/>
<path d="M144.75 446.754C145.62 445.588 147.6 443.455 150.55 444.739C153.41 445.983 154.18 448.916 153.01 451.533C151.97 453.873 149.24 455.749 146.12 454.397C143.82 453.399 143.02 451.395 143.97 448.709L150.36 451.484C150.96 449.785 150.66 447.761 148.36 446.763C147.35 446.319 145.92 446.181 144.75 446.754ZM150.09 452.096L146.71 450.624C146.53 450.881 146.39 451.148 146.29 451.365C145.76 452.55 145.75 453.626 146.65 454.012C147.91 454.555 149.34 453.547 150.09 452.096Z" fill="#010A0C"/>
<path d="M132.12 450.822C131.57 451.859 130.38 452.175 129.37 451.651C128.39 451.148 128 449.933 128.52 448.956C129.04 447.978 130.26 447.583 131.26 448.097C132.28 448.63 132.65 449.825 132.12 450.822ZM134.26 438.864L133.34 436.652L139.47 439.831L137.1 440.335L134.28 445.638L135.53 447.672L130.1 446.704L134.26 438.864Z" fill="#010A0C"/>
<path d="M121.44 429.858L127.22 433.195L125.03 433.699L122.62 437.767C121.98 438.844 122.34 439.802 123.17 440.276C123.63 440.542 124.21 440.671 124.84 440.562L127.92 435.358L127.29 433.215L133.07 436.553L130.68 436.948L127.6 442.152L128.75 444.245L123.48 443.041L124.66 441.056C123.23 441.915 121.67 441.994 120.47 441.303C119.06 440.483 118.33 438.735 119.52 436.711L122.26 432.08L121.44 429.858Z" fill="#010A0C"/>
<path d="M117.28 427.093L116.46 435.871L117.69 437.659L113.02 436.74L113.94 429.176L109.48 431.754L111.23 435.358L106.82 432.484L116.97 426.875L117.28 427.093Z" fill="#010A0C"/>
<path d="M103.46 433.65C102.77 434.598 101.55 434.756 100.62 434.094C99.7199 433.462 99.4999 432.208 100.16 431.309C100.82 430.411 102.08 430.193 102.99 430.835C103.92 431.497 104.12 432.731 103.46 433.65ZM107.26 422.096L106.66 419.785L112.28 423.775L109.86 423.953L106.32 428.821L107.27 431.003L102.03 429.295L107.26 422.096Z" fill="#010A0C"/>
<path d="M103.13 416.823C104.39 417.781 104.82 419.588 103.42 421.375L99.5098 426.392L101.03 427.547L94.5898 427.507L96.5598 424.98L94.2798 423.242L94.8398 422.827L96.9798 424.456L100.43 420.032C101.34 418.867 101.21 417.751 100.37 417.109C100.03 416.853 99.5598 416.665 98.9798 416.616C100.6 415.865 102.11 416.043 103.13 416.823Z" fill="#010A0C"/>
<path d="M90.0302 411.619C91.2002 410.74 93.7002 409.239 96.1702 411.283C98.5702 413.268 98.4702 416.29 96.6102 418.482C94.9502 420.447 91.7902 421.494 89.1802 419.331C87.2502 417.741 87.0502 415.599 88.7202 413.278L94.0702 417.702C95.1302 416.23 95.4102 414.206 93.4802 412.616C92.6502 411.925 91.3202 411.392 90.0302 411.619ZM93.6502 418.215L90.8202 415.875C90.5802 416.072 90.3602 416.29 90.2102 416.467C89.3702 417.455 89.0602 418.482 89.8102 419.104C90.8502 419.983 92.5102 419.4 93.6502 418.215Z" fill="#010A0C"/>
<path d="M82.03 400.737L86.91 403.038L85.49 404.548C86.61 404.094 87.87 404.055 89.01 405.101C90.97 406.899 90.26 409.733 88.47 411.639C86.56 413.683 83.51 414.522 81.18 412.379C80.61 411.856 80.2 411.263 80 410.552L78.57 412.073L79.24 414.354L74.25 412.014L82.7 403.008L82.03 400.737ZM82.62 407.758C80.8 409.693 80.34 410.78 81.27 411.629C82.44 412.695 84.11 411.807 85.44 410.385C87.13 408.577 87.29 406.968 85.94 405.733C85.7 405.516 85.42 405.309 85.05 405.171L82.62 407.758Z" fill="#010A0C"/>
<path d="M81.5099 400.648C80.7599 401.389 79.6199 401.398 78.8699 400.658C78.1299 399.927 78.1299 398.762 78.8699 398.031C79.6099 397.3 80.7999 397.291 81.5399 398.021C82.2899 398.772 82.2499 399.917 81.5099 400.648Z" fill="#010A0C"/>
<path d="M50.5399 363.489L50.7499 360.685L55.1499 367.182L52.4399 366.303L49.1099 368.496L45.0299 377.62L41.1599 371.902L43.7099 372.544L46.6699 366.758L40.3399 366.985L40.2699 370.569L37.4399 366.402L46.4499 366.175L50.5399 363.489Z" fill="#010A0C"/>
<path d="M40.0001 352.982C42.8001 351.323 45.7401 352.123 47.4001 354.849C49.1401 357.722 48.1201 360.537 45.5301 362.067C42.7501 363.716 39.7901 362.926 38.1301 360.201C36.3801 357.337 37.4101 354.513 40.0001 352.982ZM42.1101 355.757C39.5701 357.258 38.0401 358.897 38.7601 360.072C39.3701 361.08 41.0701 360.704 43.4201 359.312C45.9601 357.811 47.4901 356.172 46.7701 354.997C46.1601 353.99 44.4501 354.365 42.1101 355.757Z" fill="#010A0C"/>
<path d="M40.6799 342.801L38.5299 343.917C40.0599 343.888 41.4499 344.45 42.0599 345.586C42.8399 347.047 42.5199 348.904 40.4399 349.99L36.6099 351.985L36.4699 354.365L32.5499 350.533L38.3099 347.531C39.3699 346.978 39.6799 346.04 39.2699 345.27C39.0799 344.914 38.6799 344.51 38.1099 344.263L33.7099 346.564L33.5699 348.943L29.6499 345.112L36.7099 341.429L36.8499 339.049L40.6799 342.801Z" fill="#010A0C"/>
<path d="M23.98 341.36C25.73 341.044 28.08 340.886 29.17 340.994L29.79 341.952C28.51 342.071 26.37 342.505 24.94 342.93L23.98 341.36Z" fill="#010A0C"/>
<path d="M23.3602 330.645L26.7902 330.132C26.3402 330.863 26.3002 331.584 26.5402 332.117C26.7502 332.581 27.1702 332.917 27.5902 333.006L32.7602 330.734L33.3202 328.256L36.2202 334.684L34.0702 333.628L28.4802 336.086L28.1802 338.447L24.6102 334.437L27.2202 333.292C25.2802 333.638 24.1102 333.134 23.6602 332.137C23.4502 331.692 23.3402 331.208 23.3602 330.645Z" fill="#010A0C"/>
<path d="M25.2301 318.964C26.6801 318.746 29.6101 318.598 30.7901 321.57C31.9401 324.444 30.3901 327.061 27.6901 328.108C25.2801 329.046 22.0001 328.483 20.7501 325.352C19.8301 323.042 20.6801 321.067 23.2801 319.813L25.8401 326.231C27.4801 325.441 28.7101 323.792 27.7901 321.482C27.3901 320.465 26.4701 319.368 25.2301 318.964ZM25.2201 326.468L23.8601 323.071C23.5501 323.131 23.2601 323.22 23.0301 323.308C21.8101 323.782 21.0401 324.543 21.4001 325.441C21.9101 326.695 23.6401 326.972 25.2201 326.468Z" fill="#010A0C"/>
<path d="M13.36 313.058C12.23 313.414 11.16 312.812 10.82 311.735C10.49 310.698 11.07 309.563 12.14 309.227C13.21 308.891 14.36 309.464 14.7 310.521C15.04 311.597 14.45 312.713 13.36 313.058ZM23.41 306.047L24.33 303.835L26.41 310.353L24.37 309.069L18.59 310.876L18.02 313.187L14.86 308.723L23.41 306.047Z" fill="#010A0C"/>
<path d="M20.75 290.761L22.47 297.15L20.55 295.985L15.93 297.189C14.71 297.505 14.28 298.434 14.53 299.352C14.67 299.856 14.99 300.359 15.51 300.725L21.41 299.184L22.49 297.229L24.21 303.618L22.23 302.236L16.33 303.776L15.66 306.057L12.78 301.534L15.03 300.942C13.41 300.557 12.24 299.52 11.89 298.197C11.47 296.637 12.2 294.879 14.49 294.286L19.74 292.914L20.75 290.761Z" fill="#010A0C"/>
<path d="M19.77 285.903L12.92 291.561L12.51 293.684L9.84998 289.783L15.9 285.053L10.89 283.779L9.55998 287.552L8.47998 282.437L19.69 285.517L19.77 285.903Z" fill="#010A0C"/>
<path d="M5.28009 280.936C4.11009 281.133 3.14009 280.392 2.95009 279.277C2.77009 278.2 3.50009 277.163 4.61009 276.976C5.72009 276.788 6.77009 277.519 6.96009 278.615C7.15009 279.731 6.41009 280.748 5.28009 280.936ZM16.2301 275.396L17.4601 273.332L18.6001 280.076L16.7601 278.516L10.7801 279.504L9.89009 281.716L7.39009 276.857L16.2301 275.396Z" fill="#010A0C"/>
<path d="M17.0599 268.76C17.2699 270.32 16.2899 271.89 14.0199 272.186L7.66988 273.016L7.91988 274.892L3.37988 270.379L6.57988 269.965L6.19988 267.15L6.88988 267.239L7.23988 269.876L12.8399 269.145C14.3199 268.947 15.0199 268.069 14.8799 267.032C14.8199 266.617 14.6199 266.153 14.2499 265.708C15.9499 266.331 16.8899 267.506 17.0599 268.76Z" fill="#010A0C"/>
<path d="M11.4902 255.982C12.9402 256.169 15.7902 256.851 16.0902 260.021C16.3702 263.092 14.1502 265.175 11.2602 265.432C8.68016 265.669 5.70016 264.218 5.38016 260.86C5.15016 258.391 6.53016 256.732 9.38016 256.248L10.0202 263.112C11.8202 262.805 13.4602 261.561 13.2302 259.092C13.1302 258.026 12.5602 256.713 11.4902 255.982ZM9.35016 263.181L9.01016 259.547C8.70016 259.517 8.39016 259.517 8.15016 259.547C6.85016 259.665 5.89016 260.179 5.98016 261.137C6.11016 262.48 7.69016 263.23 9.35016 263.181Z" fill="#010A0C"/>
<path d="M13.58 242.661L15.4 247.687L13.32 247.776C14.44 248.23 15.36 249.089 15.42 250.62C15.53 253.256 13 254.777 10.37 254.886C7.55 255.004 4.79 253.474 4.66 250.333C4.63 249.563 4.76 248.852 5.12 248.22L3.02 248.309L1.86 250.393L0 245.248L12.42 244.744L13.58 242.661ZM8.99 248.052C6.32 248.161 5.21 248.605 5.26 249.859C5.33 251.43 7.15 251.963 9.1 251.884C11.59 251.785 12.85 250.738 12.78 248.931C12.77 248.605 12.71 248.27 12.55 247.914L8.99 248.052Z" fill="#010A0C"/>
<path d="M13.3 242.236C12.24 242.256 11.41 241.486 11.39 240.429C11.37 239.402 12.2 238.563 13.24 238.543C14.28 238.523 15.15 239.343 15.17 240.37C15.19 241.417 14.34 242.216 13.3 242.236Z" fill="#010A0C"/>
<path d="M17.8101 194.323L19.9601 192.477L18.4401 200.15L17.1501 197.641L13.2201 196.881L3.81006 200.515L5.14006 193.771L6.49006 196.002L12.7201 193.958L8.07006 189.712L5.46006 192.21L6.43006 187.283L12.9801 193.395L17.8101 194.323Z" fill="#010A0C"/>
<path d="M17.8198 179.531C20.9898 180.301 22.5098 182.908 21.7298 186.009C20.9198 189.258 18.1798 190.542 15.2498 189.831C12.0998 189.06 10.5598 186.453 11.3398 183.353C12.1498 180.104 14.8898 178.82 17.8198 179.531ZM17.3498 182.967C14.4798 182.266 12.2198 182.365 11.8898 183.698C11.6098 184.834 13.0798 185.752 15.7398 186.394C18.6098 187.095 20.8698 186.996 21.1998 185.663C21.4798 184.528 19.9998 183.609 17.3498 182.967Z" fill="#010A0C"/>
<path d="M25.5801 172.806L23.2601 172.105C24.3701 173.152 24.9501 174.515 24.5701 175.749C24.0801 177.329 22.5301 178.425 20.2801 177.744L16.1401 176.489L14.3501 178.079L14.3101 172.628L20.5401 174.505C21.6901 174.85 22.5801 174.406 22.8401 173.576C22.9601 173.191 22.9601 172.619 22.7401 172.046L17.9701 170.604L16.1801 172.194L16.1401 166.743L23.7801 169.044L25.5701 167.454L25.5801 172.806Z" fill="#010A0C"/>
<path d="M14.7701 160.127C16.2401 161.124 18.0101 162.645 18.7101 163.484L18.4701 164.6C17.4801 163.79 15.6501 162.606 14.3301 161.924L14.7701 160.127Z" fill="#010A0C"/>
<path d="M21.9801 152.109L24.7801 154.133C23.9401 154.33 23.4001 154.824 23.1901 155.367C23.0101 155.841 23.0601 156.375 23.3001 156.72L28.5801 158.705L30.7401 157.342L28.2001 163.919L27.4301 161.667L21.7101 159.515L19.8101 160.976L20.1401 155.644L22.8101 156.651C21.1801 155.545 20.7201 154.38 21.1101 153.363C21.3001 152.908 21.5701 152.494 21.9801 152.109Z" fill="#010A0C"/>
<path d="M31.6501 145.127C32.8301 145.986 35.0101 147.922 33.7301 150.845C32.4901 153.679 29.5301 154.459 26.8601 153.323C24.4801 152.306 22.5601 149.62 23.9101 146.529C24.9101 144.248 26.9301 143.438 29.6601 144.367L26.8901 150.697C28.6201 151.279 30.6601 150.963 31.6601 148.682C32.1101 147.695 32.2401 146.273 31.6501 145.127ZM26.2901 150.44L27.7501 147.092C27.4901 146.914 27.2201 146.776 27.0001 146.687C25.8001 146.174 24.7101 146.174 24.3201 147.063C23.7701 148.297 24.8101 149.699 26.2901 150.44Z" fill="#010A0C"/>
<path d="M27.4599 132.685C26.4099 132.152 26.0799 130.976 26.5999 129.979C27.1099 129.011 28.3299 128.616 29.3199 129.12C30.3199 129.633 30.7199 130.828 30.2099 131.816C29.6799 132.823 28.4699 133.198 27.4599 132.685ZM39.5799 134.709L41.8099 133.781L38.6299 139.854L38.0999 137.524L32.7099 134.778L30.6599 136.023L31.6099 130.651L39.5799 134.709Z" fill="#010A0C"/>
<path d="M48.6098 122L45.2698 127.728L44.7398 125.565L40.5998 123.205C39.4998 122.583 38.5398 122.938 38.0598 123.758C37.7998 124.212 37.6698 124.795 37.7798 125.407L43.0698 128.419L45.2298 127.787L41.8898 133.514L41.4698 131.164L36.1798 128.152L34.0698 129.298L35.2498 124.084L37.2698 125.229C36.3898 123.827 36.2998 122.287 36.9998 121.092C37.8198 119.699 39.5898 118.959 41.6398 120.124L46.3398 122.8L48.6098 122Z" fill="#010A0C"/>
<path d="M51.3899 117.863L42.4899 117.102L40.6899 118.327L41.5899 113.705L49.2599 114.565L46.6199 110.18L42.9799 111.938L45.8599 107.563L51.6099 117.547L51.3899 117.863Z" fill="#010A0C"/>
<path d="M44.6498 104.275C43.6798 103.603 43.5198 102.399 44.1798 101.48C44.8198 100.592 46.0798 100.365 46.9998 101.006C47.9198 101.648 48.1498 102.893 47.4998 103.801C46.8298 104.719 45.5798 104.927 44.6498 104.275ZM56.3698 107.948L58.7098 107.336L54.7098 112.915L54.5198 110.536L49.5698 107.079L47.3598 108.027L49.0498 102.843L56.3698 107.948Z" fill="#010A0C"/>
<path d="M61.6998 103.811C60.7398 105.065 58.9198 105.49 57.0998 104.127L51.9998 100.295L50.8398 101.806V95.4468L53.4098 97.3724L55.1498 95.1111L55.5698 95.6641L53.9398 97.7872L58.4398 101.164C59.6298 102.053 60.7598 101.915 61.3998 101.085C61.6598 100.75 61.8398 100.276 61.8998 99.7128C62.6498 101.313 62.4798 102.804 61.6998 103.811Z" fill="#010A0C"/>
<path d="M66.8599 90.8847C67.7499 92.0302 69.2999 94.489 67.2399 96.9478C65.2499 99.3277 62.1899 99.2585 59.9499 97.4317C57.9499 95.8024 56.8699 92.6918 59.0399 90.1046C60.6399 88.1988 62.8099 87.9717 65.1699 89.6109L60.7199 94.9235C62.2099 95.9604 64.2699 96.227 65.8699 94.3113C66.5699 93.4818 67.0899 92.1487 66.8599 90.8847ZM60.1999 94.5088L62.5499 91.6945C62.3499 91.4575 62.1299 91.2501 61.9399 91.0921C60.9299 90.2725 59.8899 89.9664 59.2699 90.7169C58.3999 91.7537 58.9899 93.3831 60.1999 94.5088Z" fill="#010A0C"/>
<path d="M77.86 82.8763L75.56 87.7149L74.02 86.3226C74.49 87.4286 74.53 88.6728 73.48 89.7985C71.67 91.7438 68.8 91.0625 66.86 89.3048C64.78 87.4285 63.91 84.4266 66.06 82.106C66.58 81.5432 67.19 81.1284 67.9 80.9309L66.35 79.5287L64.04 80.2002L66.37 75.2628L75.54 83.5478L77.86 82.8763ZM70.75 83.4984C68.78 81.7111 67.67 81.2667 66.82 82.185C65.75 83.3404 66.66 84.9895 68.1 86.293C69.94 87.9519 71.58 88.1 72.82 86.7571C73.04 86.5201 73.24 86.2436 73.39 85.8782L70.75 83.4984Z" fill="#010A0C"/>
<path d="M77.9398 82.3628C77.1798 81.6222 77.1598 80.4964 77.9098 79.7558C78.6398 79.0251 79.8298 79.0152 80.5698 79.7361C81.3098 80.457 81.3298 81.6419 80.5998 82.3727C79.8498 83.1232 78.6798 83.0837 77.9398 82.3628Z" fill="#010A0C"/>
<path d="M115.34 51.5533L118.18 51.741L111.63 56.1353L112.5 53.4592L110.25 50.1906L100.98 46.2209L106.74 42.3599L106.1 44.878L111.98 47.7614L111.71 41.5107L108.07 41.4613L112.28 38.647L112.57 47.5343L115.34 51.5533Z" fill="#010A0C"/>
<path d="M125.93 41.0564C127.63 43.8115 126.84 46.7147 124.08 48.3736C121.18 50.1116 118.32 49.1241 116.75 46.5666C115.06 43.8312 115.84 40.9083 118.6 39.2493C121.5 37.5113 124.36 38.5087 125.93 41.0564ZM123.14 43.1597C121.6 40.6614 119.93 39.1604 118.75 39.8714C117.74 40.4837 118.13 42.1624 119.55 44.4632C121.09 46.9615 122.76 48.4625 123.94 47.7515C124.95 47.1492 124.56 45.4704 123.14 43.1597Z" fill="#010A0C"/>
<path d="M136.22 41.6786L135.07 39.5653C135.11 41.0762 134.55 42.4488 133.4 43.061C131.92 43.8411 130.04 43.535 128.93 41.4909L126.88 37.7286L124.47 37.6101L128.33 33.7096L131.41 39.3777C131.98 40.4245 132.93 40.7207 133.7 40.3158C134.06 40.1282 134.47 39.7233 134.72 39.1605L132.36 34.8254L129.95 34.7069L133.81 30.8064L137.59 37.7484L140 37.8669L136.22 41.6786Z" fill="#010A0C"/>
<path d="M137.59 25.1678C137.92 26.8959 138.09 29.2164 137.99 30.2927L137.03 30.9148C136.9 29.6509 136.45 27.5377 136 26.1355L137.59 25.1678Z" fill="#010A0C"/>
<path d="M148.43 24.4864L148.97 27.8735C148.23 27.4292 147.5 27.3995 146.96 27.6464C146.49 27.8538 146.15 28.2784 146.07 28.6833L148.4 33.7689L150.91 34.3021L144.42 37.2053L145.48 35.0723L142.95 29.5621L140.56 29.2856L144.6 25.7307L145.78 28.2981C145.42 26.3824 145.92 25.227 146.92 24.7728C147.38 24.5753 147.87 24.4667 148.43 24.4864Z" fill="#010A0C"/>
<path d="M160.28 26.254C160.51 27.6859 160.67 30.5693 157.68 31.7641C154.78 32.9195 152.12 31.4086 151.04 28.7523C150.07 26.3725 150.62 23.1435 153.79 21.8795C156.12 20.9513 158.13 21.7906 159.41 24.3383L152.93 26.9057C153.74 28.5153 155.42 29.7201 157.75 28.7918C158.77 28.3968 159.87 27.4785 160.28 26.254ZM152.68 26.2935L156.11 24.9308C156.05 24.6247 155.96 24.3383 155.87 24.1112C155.38 22.9163 154.61 22.156 153.7 22.5213C152.43 23.025 152.16 24.7432 152.68 26.2935Z" fill="#010A0C"/>
<path d="M166.16 14.5129C165.8 13.3971 166.39 12.3405 167.48 11.9949C168.53 11.6591 169.68 12.222 170.02 13.2786C170.37 14.3352 169.79 15.4708 168.72 15.8065C167.65 16.1521 166.51 15.5794 166.16 14.5129ZM173.32 24.3877L175.56 25.2863L168.98 27.3896L170.27 25.3653L168.41 19.6676L166.07 19.1244L170.57 15.9744L173.32 24.3877Z" fill="#010A0C"/>
<path d="M188.8 21.6425L182.34 23.3805L183.51 21.4747L182.25 16.9224C181.92 15.7177 180.98 15.3029 180.05 15.5498C179.54 15.6881 179.03 16.0139 178.67 16.5274L180.28 22.3436L182.26 23.4002L175.8 25.1382L177.18 23.1731L175.57 17.3569L173.25 16.7052L177.81 13.8217L178.42 16.0436C178.8 14.434 179.84 13.2786 181.18 12.9231C182.76 12.4985 184.54 13.2095 185.16 15.4708L186.59 20.6452L188.8 21.6425Z" fill="#010A0C"/>
<path d="M193.72 20.6353L187.94 13.9105L185.79 13.5254L189.72 10.869L194.55 16.8137L195.81 11.8664L191.98 10.5827L197.15 9.47668L194.11 20.5661L193.72 20.6353Z" fill="#010A0C"/>
<path d="M204.33 17.0802L206.43 18.2751L199.61 19.4403L201.17 17.6135L200.13 11.7182L197.89 10.8591L202.8 8.36077L204.33 17.0802ZM198.64 6.30681C198.44 5.15146 199.18 4.18373 200.31 3.99611C201.4 3.80849 202.45 4.52935 202.65 5.62545C202.84 6.72155 202.11 7.75841 201.01 7.95591C199.87 8.14353 198.84 7.42267 198.64 6.30681Z" fill="#010A0C"/>
<path d="M211.06 17.8506C209.48 18.0678 207.88 17.11 207.57 14.8684L206.69 8.59785L204.79 8.8546L209.33 4.3418L209.77 7.49187L212.62 7.09688L212.53 7.77824L209.86 8.14361L210.64 13.6735C210.85 15.135 211.75 15.8164 212.8 15.6781C213.22 15.6189 213.69 15.4115 214.13 15.0461C213.53 16.7446 212.34 17.6827 211.06 17.8506Z" fill="#010A0C"/>
<path d="M223.99 12.2713C223.8 13.7031 223.14 16.5273 219.93 16.8334C216.82 17.1296 214.7 14.9473 214.41 12.0935C214.16 9.54581 215.61 6.59325 219 6.25751C221.5 6.02052 223.19 7.37336 223.7 10.1778L216.75 10.8493C217.07 12.6169 218.34 14.2462 220.84 13.9993C221.93 13.9105 223.25 13.3377 223.99 12.2713ZM216.68 10.1975L220.36 9.84206C220.39 9.53594 220.38 9.22982 220.36 8.99282C220.23 7.7091 219.71 6.771 218.73 6.85987C217.37 6.98824 216.62 8.56821 216.68 10.1975Z" fill="#010A0C"/>
<path d="M237.46 14.2561L232.38 16.083L232.28 14.029C231.82 15.135 230.97 16.0435 229.42 16.1225C226.75 16.2508 225.2 13.7525 225.08 11.1554C224.95 8.38058 226.47 5.64525 229.65 5.49713C230.42 5.45763 231.15 5.586 231.8 5.9415L231.7 3.86778L229.58 2.73218L234.76 0.855957L235.35 13.1205L237.46 14.2561ZM231.98 9.75319C231.85 7.1166 231.39 6.03037 230.13 6.08962C228.54 6.16862 228.01 7.96584 228.11 9.89143C228.23 12.3503 229.29 13.5846 231.12 13.5056C231.45 13.4859 231.79 13.4365 232.15 13.2785L231.98 9.75319Z" fill="#010A0C"/>
<path d="M237.9 13.9599C237.88 12.9132 238.67 12.0936 239.73 12.0738C240.77 12.0541 241.62 12.8737 241.64 13.9007C241.66 14.9277 240.83 15.7868 239.79 15.8066C238.72 15.8164 237.91 14.9869 237.9 13.9599Z" fill="#010A0C"/>
</svg>
