<svg width="50" height="90" viewBox="0 0 50 90" fill="none" xmlns="http://www.w3.org/2000/svg">
<path d="M23.5432 20.2218C23.4206 20.022 23.3102 19.8182 23.1774 19.6304C22.37 18.4937 23.302 16.5819 24.9086 16.5699C25.4707 16.5659 26.0349 16.6838 26.5949 16.7637C26.6705 16.7757 26.7911 16.9015 26.7891 16.9695C26.7605 17.6167 26.7094 18.262 26.6113 18.9232C26.5806 18.8293 26.5438 18.7374 26.5193 18.6416C26.3578 18.0243 26.18 17.417 25.6669 16.9715C25.2316 16.5939 24.6449 16.542 24.2137 16.8416C23.7762 17.1453 23.5841 17.7506 23.8437 18.24C24.0788 18.6855 24.3649 19.113 24.6858 19.5046C25.5504 20.5634 26.4559 21.5882 27.5045 22.4792C27.8111 22.7409 28.1586 22.9686 28.5204 23.1524C28.8658 23.3282 28.9966 23.2443 29.062 22.8707C29.2051 22.0557 29.1009 21.2526 28.8454 20.4715C28.8208 20.3995 28.6655 20.3256 28.5694 20.3236C27.8765 20.3216 27.1836 20.3376 26.4927 20.3476C26.4764 20.3476 26.4621 20.3356 26.3885 20.3037C26.6133 19.976 26.8259 19.6524 27.0569 19.3408C27.0916 19.2948 27.202 19.2888 27.2776 19.2888C28.0564 19.2848 28.8372 19.2868 29.6466 19.2868C29.5464 19.4307 29.4402 19.5765 29.342 19.7263C29.2296 19.9001 29.0314 20.0839 29.0436 20.2517C29.0559 20.3995 29.2991 20.5374 29.4483 20.6692C30.2107 21.3445 30.268 22.1216 29.5485 22.8348C29.2276 23.1524 28.8413 23.4261 28.4386 23.6398C27.8377 23.9575 27.2306 23.8736 26.691 23.4581C26.3823 23.2203 26.088 22.9626 25.7875 22.7109C25.7221 22.657 25.6608 22.599 25.6138 22.5571C25.2724 22.8647 24.9699 23.1744 24.6306 23.4381C24.0726 23.8716 23.4451 23.9934 22.789 23.6638C22.1022 23.3202 21.7466 22.7449 21.7772 21.9977C21.8058 21.3005 22.2678 20.849 22.8462 20.5114C23.0588 20.3896 23.298 20.3216 23.5432 20.2218ZM25.4503 22.4392C24.8657 21.762 24.3016 21.1007 23.7211 20.4495C23.6679 20.3896 23.5105 20.3716 23.4206 20.3975C22.93 20.5394 22.6725 20.9969 22.7972 21.4843C22.9525 22.0936 23.3531 22.5231 23.8948 22.8288C24.5427 23.1924 25.0558 23.0525 25.4503 22.4392Z" fill="#D1783B"/>
<path d="M14.6108 26.8402C12.7896 26.8402 10.9684 26.8402 9.12264 26.8402C9.15943 26.7823 9.17374 26.7403 9.19009 26.7383C10.1957 26.6444 10.1998 26.6444 10.3593 25.6276C10.4042 25.3339 10.4451 25.0363 10.4451 24.7406C10.4512 21.5962 10.4512 18.4498 10.4533 15.3054C10.4533 15.1735 10.4512 15.0397 10.4492 14.9078C10.4144 13.6752 10.2755 13.5014 9 13.1858C9.20031 13.1458 9.30251 13.1099 9.40267 13.1099C11.5938 13.1039 13.7891 13.044 15.9762 13.1259C16.8878 13.1598 17.8178 13.4055 18.6844 13.7072C19.7105 14.0628 20.3278 14.8359 20.4443 15.9367C20.5731 17.1553 20.0314 18.0422 18.9543 18.5776C18.2675 18.9192 17.5071 19.121 16.7774 19.3787C16.5771 19.4486 16.3686 19.4946 16.1765 19.6364C16.3011 19.6604 16.4258 19.6964 16.5526 19.7083C17.7646 19.8282 18.6701 20.4135 19.2118 21.4663C19.6819 22.3813 20.0825 23.3302 20.5138 24.2651C20.5894 24.4309 20.6549 24.6027 20.7325 24.7666C21.1843 25.7434 21.6155 26.7443 23.0259 26.7203C23.0075 26.7603 22.9871 26.8022 22.9687 26.8422C22.8481 26.8582 22.7275 26.8821 22.6069 26.8861C21.8097 26.9221 21.0126 26.9441 20.2174 26.99C19.2384 27.046 18.7499 26.8262 18.3615 25.9332C17.8996 24.8704 17.5275 23.7697 17.1126 22.6849C16.9757 22.3293 16.8408 21.9718 16.6793 21.6262C15.9598 20.0979 15.2158 19.7423 13.4539 19.7523C13.1473 19.7543 13.0839 19.8821 13.0859 20.1438C13.1064 21.8819 13.0962 23.6219 13.1411 25.3579C13.1677 26.3687 13.3149 26.4746 14.6108 26.8402ZM13.09 19.4227C13.8933 19.4227 14.621 19.5226 15.3098 19.4007C16.4401 19.1989 17.176 18.4558 17.4356 17.371C17.7176 16.1944 17.7074 14.9977 16.7815 14.0668C15.9394 13.2198 14.8029 13.2258 13.6848 13.3376C13.2392 13.3816 13.1207 13.6932 13.1186 14.0828C13.1125 15.3733 13.0982 16.6618 13.09 17.9523C13.088 18.4398 13.09 18.9312 13.09 19.4227Z" fill="#D1783B"/>
<path d="M37.716 26.8382C38.9771 26.6304 39.1284 26.4606 38.7584 25.29C38.4355 24.2651 38.0267 23.2643 37.6179 22.2654C37.5606 22.1236 37.297 21.9778 37.1253 21.9738C35.5637 21.9458 34.002 21.9438 32.4404 21.9538C32.2871 21.9538 32.0398 22.0557 31.9989 22.1675C31.6065 23.2583 31.1997 24.355 31.398 25.5437C31.537 26.3687 32.2258 26.8222 33.0638 26.6844C33.2212 26.6584 33.3868 26.6804 33.5483 26.6804C33.5483 26.7263 33.5483 26.7723 33.5483 26.8202C31.8865 26.8202 30.2268 26.8202 28.4976 26.8202C28.5916 26.7423 28.6345 26.6804 28.6856 26.6704C29.4419 26.5365 29.8609 26.0071 30.1389 25.3938C30.8706 23.7777 31.5901 22.1555 32.2544 20.5114C33.1844 18.2041 34.0736 15.8807 34.9464 13.5514C35.1058 13.1239 35.3511 12.99 35.7721 13.002C36.185 13.014 36.5427 12.996 36.7451 13.4994C37.7548 16.0066 38.7952 18.5037 39.8479 20.9949C40.4284 22.3713 41.0313 23.7377 41.667 25.0902C42.0165 25.8373 42.3783 26.6185 43.3615 26.8362C41.481 26.8382 39.5985 26.8382 37.716 26.8382ZM34.7031 15.3074C34.6622 15.3034 34.6214 15.3014 34.5805 15.2974C33.7772 17.423 32.976 19.5485 32.1624 21.7021C33.9223 21.7021 35.6045 21.7021 37.3848 21.7021C36.4671 19.5126 35.5841 17.411 34.7031 15.3074Z" fill="#D1783B"/>
<rect x="0.5" y="0.5" width="49" height="89" rx="24.5" stroke="#D1783B"/>
<path d="M24.604 89.9564L24.604 54.5403" stroke="#D1783B" stroke-miterlimit="10"/>
<path d="M24.6387 78.0881L26.7883 75.251C26.7883 75.251 26.0681 69.4569 31.1748 68.213C32.626 67.8529 33.499 67.3728 33.499 67.3728C33.499 67.3728 33.5099 67.8529 33.5644 70.4172C33.6299 73.5052 30.3891 76.0367 26.7992 75.262" stroke="#D1783B" stroke-miterlimit="10"/>
<path d="M24.6389 69.926L22.5002 66.5761C22.5002 66.5761 17.0007 68.2784 15.7568 64.4047C15.364 63.1935 15.4076 61.6441 14 59.6472C14 59.6472 16.2915 59.7782 18.8666 60.1164C21.5618 60.4656 23.3841 63.2808 22.5002 66.5761" stroke="#D1783B" stroke-miterlimit="10"/>
<path d="M24.6388 54.8352C24.6388 54.8352 18.7464 54.3224 17.8844 51.2016C17.0224 48.0809 17.808 43.7708 17.8844 42.3632C17.9608 40.9556 16.7932 39.5807 15.2983 39.8098" stroke="#D1783B" stroke-miterlimit="10"/>
<path d="M24.6387 54.8352C24.6387 54.8352 31.5785 54.7152 31.5021 48.5391C31.5021 48.5391 31.2621 46.1168 30.7165 45.1783" stroke="#D1783B" stroke-miterlimit="10"/>
<path d="M33.3025 42.9087C33.3025 42.9087 35.103 49.6412 30.7383 51.7035" stroke="#D1783B" stroke-miterlimit="10"/>
<path d="M28.4145 37.6711C28.4145 37.6711 30.0403 40.41 29.713 41.894C29.3856 43.378 26.8105 44.1636 22.9805 43.9235" stroke="#D1783B" stroke-miterlimit="10"/>
<path d="M29.0689 38.9587C29.0689 38.9587 32.6479 38.5768 33.6955 40.4863C34.252 41.5011 34.001 42.2431 33.3026 42.9087C27.9996 48.0154 23.995 43.7707 22.9802 43.9235C21.9654 44.0763 22.5874 45.6475 21.889 49.6085C21.1907 53.5694 24.6497 54.8352 24.6497 54.8352" stroke="#D1783B" stroke-miterlimit="10"/>
<path d="M17.8844 42.3631C17.8844 42.3631 17.7098 38.5331 21.7144 38.9587C25.719 39.3842 25.7081 39.3842 26.6902 38.6422" stroke="#D1783B" stroke-miterlimit="10"/>
<path d="M18.7792 39.8098C18.7792 39.8098 15.6912 36.6454 17.8845 36.0998C20.0777 35.5542 22.6638 37.4638 24.1369 36.6017C26.5702 35.1941 27.8905 36.6999 28.4034 37.6602" stroke="#D1783B" stroke-miterlimit="10"/>
</svg>
