<svg width="72" height="99" viewBox="0 0 72 99" fill="none" xmlns="http://www.w3.org/2000/svg">
<g clip-path="url(#clip0)">
<path d="M22.4609 82.7968C24.6916 83.7166 27.0579 83.8927 29.3079 83.9905C31.1506 84.0688 32.9739 84.1079 34.7972 84.1079C38.114 84.1079 41.392 83.971 44.6118 83.697C46.1247 83.56 47.6183 83.3839 48.9954 82.6794C50.8381 81.7205 51.8661 80.2724 51.8855 78.5699C51.9049 77.6306 51.5558 76.7891 50.9545 76.1042C51.1678 76.0063 51.4006 75.8889 51.5946 75.7519C52.8553 74.9105 53.573 73.5211 53.4178 72.1708C53.3597 71.7207 53.1269 70.4291 52.2734 69.529C53.3791 68.5114 53.9997 66.9458 53.7088 65.4586C53.6118 64.8911 53.3403 64.2257 52.739 63.6387C53.3015 63.1886 53.767 62.6406 54.0191 61.8775C54.4847 60.4685 54.3101 58.9617 53.5536 57.7484C52.8553 56.6525 51.7497 55.9285 50.5278 55.7915C49.9653 55.7328 48.9178 55.6741 47.5989 55.6545C49.2282 53.8346 50.3532 51.5254 50.9933 48.6292C51.4394 46.594 51.4006 44.9306 50.8963 43.5217C50.7605 43.1498 50.4696 42.8367 50.101 42.6997C49.7325 42.5628 49.3252 42.6019 48.9566 42.7585C44.4372 44.6371 38.7928 50.2926 38.7928 49.4511V38.3946C38.7928 38.0227 39.045 37.6901 39.3941 37.5726C42.6334 36.4376 45.3877 33.835 46.7648 30.5082C47.8898 27.7685 47.6183 25.1658 46.0278 23.5416C44.6894 22.1913 42.4588 21.7217 40.4803 22.3479C39.5493 22.6414 38.6959 23.1698 37.9394 23.8547C37.726 24.0504 37.3963 24.07 37.1635 23.8743C36.4459 23.2676 35.67 22.8176 34.8166 22.5436C32.8381 21.937 30.6075 22.4066 29.2885 23.7177C27.6786 25.3224 27.4071 27.886 28.5515 30.6061C29.851 33.7175 32.4308 36.2028 35.476 37.3965C35.8252 37.5335 36.0773 37.8662 36.0773 38.2576V46.5353C36.0773 46.7897 35.7864 46.9267 35.573 46.7701C31.4028 43.5999 25.0795 43.2673 24.1484 43.2477C23.2174 43.2281 22.267 43.189 21.8791 44.1479C21.6269 44.7545 21.8403 45.2633 22.1894 46.0461C22.364 46.4179 23.0622 47.8856 24.3036 49.725C24.5364 50.0577 24.3618 50.5274 23.9739 50.6448C20.5601 51.6232 17.4372 53.7759 16.0989 56.2807C14.8963 58.5311 14.1592 60.9381 13.8877 63.4626C13.4222 67.7873 13.7325 71.4076 14.8381 74.5582C16.1765 78.335 18.9696 81.3291 22.4609 82.7968ZM43.4286 49.4315L44.3015 48.8249C45.6786 47.866 47.0946 46.9658 48.5493 46.1439C48.6075 50.0969 45.2713 53.7563 43.8941 55.087C43.5256 55.4392 43.0407 55.6349 42.5364 55.6349C42.5364 55.6349 39.4911 55.6936 39.2196 55.6936C39.045 55.6936 38.8316 55.6936 38.8316 55.3805C38.8316 55.1653 38.8316 54.6565 38.8316 54.3629C38.8316 54.2259 38.8898 53.9911 38.9092 53.9324C39.7045 51.9559 41.5084 50.7231 43.4286 49.4315ZM31.0924 29.5298C30.5687 28.2773 30.3166 26.614 31.2282 25.7138C31.8295 25.1071 33.0127 24.931 34.0213 25.205C35.573 25.6551 36.6398 27.1619 36.7756 27.2793C37.2217 27.7881 37.726 28.1403 38.3079 27.7685C38.6377 27.5728 38.7928 27.0249 39.0838 26.6531C39.7045 25.8312 40.461 25.2441 41.295 24.9702C42.3036 24.6571 43.448 24.8527 44.0687 25.479C44.9803 26.3987 44.7476 28.1012 44.2045 29.3928C43.1959 31.8585 41.2174 33.8154 38.8898 34.7743C38.0752 35.1069 37.1635 35.0874 36.3489 34.7547C34.0407 33.8545 32.101 31.9368 31.0924 29.5298ZM36.0579 52.7974V55.0087C36.0579 55.3414 35.8058 55.5762 35.4954 55.4979C33.0127 54.95 26.0881 50.5665 25.3316 46.1439C28.1441 46.4374 33.1872 47.455 35.3791 50.4882C35.8446 51.1536 36.0579 51.9755 36.0579 52.7974ZM16.6226 63.7757C16.8553 61.6231 17.4954 59.5487 18.5234 57.6114C19.4545 55.8502 22.1894 53.8737 25.3704 53.1496C26.1657 52.9735 27.0579 53.1692 27.6786 53.7171C28.6484 54.5586 30.7433 55.7719 30.7433 56.085C30.8403 56.1633 29.8316 56.2024 29.5601 56.222C28.8036 56.3003 28.2217 56.9069 28.2993 57.6701C28.3769 58.4333 29.0752 58.9812 29.8122 58.903C34.1765 58.4333 47.7928 58.2572 50.198 58.5507C50.6053 58.6094 50.9739 58.8442 51.226 59.2356C51.5364 59.7444 51.614 60.3706 51.4006 60.9968C51.2066 61.5839 50.4696 62.1319 48.6657 62.2688C45.9308 62.3275 41.7023 62.5624 39.8015 62.8168C39.045 62.9146 38.5213 63.6191 38.6183 64.3823C38.7153 65.1455 39.4135 65.6739 40.17 65.576C42.6722 65.2238 46.2993 65.0281 48.3747 65.0281C48.4329 65.0281 51.1291 64.8324 51.2454 65.9674C51.3036 66.6914 50.9157 67.5721 49.8489 67.7873C49.5579 67.846 49.2864 67.9243 48.9954 67.9634C46.0278 68.3548 43.2153 68.4331 40.0924 68.1983C39.3553 68.1396 38.6765 68.7266 38.6183 69.4898C38.5601 70.253 39.142 70.9184 39.8984 70.9771C41.1204 71.0554 42.2842 71.1141 43.448 71.1141C44.8252 71.1141 46.1635 71.0358 47.5213 70.8988C49.8101 70.6835 50.6829 70.8401 50.7993 72.5035C50.8769 73.6189 48.8015 73.8733 48.0838 74.0103C45.3683 74.4799 42.4394 74.4604 39.9178 74.3821C39.8984 74.3821 39.8984 74.3821 39.8791 74.3821C39.1226 74.3821 38.5213 74.9887 38.5019 75.7324C38.4825 76.4956 39.0838 77.1413 39.8403 77.1609C40.6161 77.1805 41.4308 77.2 42.2648 77.2C43.351 77.2 45.892 77.0826 46.0666 77.0826C47.2691 77.0239 48.3359 77.3762 48.8209 77.8458C49.0148 78.0415 49.0924 78.2372 49.0924 78.4916C49.0924 78.7264 49.0924 79.4309 47.6959 80.155C46.7454 80.6442 45.6204 80.7616 44.3209 80.879C39.4523 81.29 34.4286 81.3878 29.3855 81.153C27.3877 81.0552 25.2734 80.9182 23.4696 80.155C20.6959 79.0004 18.4653 76.5934 17.3984 73.5602C16.4674 70.8792 16.1959 67.6699 16.6226 63.7757Z" fill="#965541"/>
<path d="M68.9935 21.1549C67.5194 16.0865 65.6379 12.3684 63.1164 9.43301C56.9871 2.32943 47.4052 0.411659 40.4224 0.059415C27.2716 -0.605934 15.6142 3.89496 9.32974 12.0944C5.35345 17.2802 3.64655 23.6793 2.71552 28.0432C0.5625 38.1409 0.232759 48.5125 0.0969828 58.2579C-0.0581896 68.3164 0.0193965 96.946 0.0193965 97.2395C0.0193965 97.533 0.135776 97.7874 0.290948 98.0223C0.465517 98.5898 0.969828 99.0007 1.59052 99.0007H70.1573C70.9138 99.0007 71.5345 98.3745 71.5345 97.6113C71.5345 97.5526 73.6099 36.9471 68.9935 21.1549ZM2.85129 58.297C2.98707 48.6886 3.31681 38.4735 5.41164 28.6303C6.80819 22.1138 8.74784 17.4172 11.5022 13.8165C17.2435 6.34109 27.9698 2.25115 40.2866 2.85779C49.3836 3.30788 56.7543 6.30195 61.0409 11.2725C63.2909 13.8948 64.9784 17.2802 66.3556 21.9572C70.3513 35.5969 69.1875 83.8542 68.8772 94.8521C68.8578 95.6348 68.2177 96.2219 67.4612 96.2219H3.33621C3.02586 96.2219 2.7931 95.9871 2.77371 95.674C2.75431 89.5488 2.73491 66.9857 2.85129 58.297Z" fill="#965541"/>
</g>
<defs>
<clipPath id="clip0">
<rect width="72" height="99" fill="white"/>
</clipPath>
</defs>
</svg>
